<?xml version="1.0" encoding="utf-8"?>
<!-- Generator: Adobe Illustrator 18.0.0, SVG Export Plug-In . SVG Version: 6.00 Build 0)  -->
<!DOCTYPE svg PUBLIC "-//W3C//DTD SVG 1.1//EN" "http://www.w3.org/Graphics/SVG/1.1/DTD/svg11.dtd">
<svg version="1.1" id="圖層_1" xmlns="http://www.w3.org/2000/svg" xmlns:xlink="http://www.w3.org/1999/xlink" x="0px" y="0px"
	 viewBox="0 0 1933 1093" enable-background="new 0 0 1933 1093" xml:space="preserve">
<g>
	<g id="XMLID_322_">
		<path id="XMLID_342_" fill="#231815" d="M1470.7,655.9c1.6-0.2,3,0,3.9-0.5c8.5-4.3,18.2-5.4,27.8-7c5.6-1,10.9-3.2,16.4-4.6
			c3.8-1,7.7-2,11.6-2.2c10.5-0.5,11-0.6,13-9.8c-3.5-2.5-7.5-0.9-11.2-0.5c-6.3,0.8-12.6,1.7-18.9,2.8c-12.7,2.3-24.1-2.7-36-4.2
			c-5.6-0.7-10.9-6.4-10.7-11c0.1-1.6,2-3.6,3.8-4.4c9.7-4.6,19.5-9.2,29.7-13c4.8-1.8,10.7-2.6,16-2.5c13.8,0.3,27.5,1.3,41.3,2.2
			c9.5,0.7,12.5-0.5,14.6-7.8c1-3.6,1.3-7.4,1.2-11c-0.2-4.3-2.7-6.1-7.7-5.3c-8.1,1.3-16,3.1-24,4.6c-9.8,1.9-19.5,4.1-29.5,5.3
			c-4.9,0.6-10.4,0-15.2-1.2c-13.5-3.3-26.8-7.1-40.2-10.9c-2.7-0.8-5.7-2.1-7.3-4c-4.1-4.4-2.3-5.2,2.8-8.9
			c9.4-6.7,20.3-8.9,32-11.1c11.7-2.3,22.6-7.2,33.9-10.9c3.1-1,6.4-1.8,9.7-2.2c13.8-1.8,26.2-6.4,38.1-12.1
			c10.5-5,21.1-9.9,31.7-14.8c1.6-0.7,3.2-1.5,4.9-2.1c9.2-3.3,15-2,22,3.9c5.3,4.5,11,8.6,17.1,12.4c6,3.7,10.8,7.9,15.3,12.8
			c4.4,4.8,4.7,9,2.6,14.5c-3.4,8.9-5.6,18.2-8.3,27.3c-1.1,3.6-2.5,7.1-3.7,10.7c-3.8,11.4-8.3,22.8-11,34.4
			c-2.4,10.2-8.3,18.4-17.4,25.4c-11.9,9.2-23.5,18.6-35.7,27.5c-5.1,3.8-11,7-17.1,9.7c-7.7,3.3-15.7,1.8-22.6-2
			c-6.2-3.4-12.2-5.5-19.8-4.2c-2.2,0.4-5.1,0.1-7.1-0.7c-6.2-2.6-12.9-5.1-18.1-8.8c-3.9-2.8-7-2.6-10.7-1.4
			c-8.6,2.6-15.6,6.7-18.8,14.6c1.7,2.2,3.5,4.8,5.6,7.2c2.4,2.7,5.5,4.6,10,4.8c9.5,0.3,16.6,3.2,19.1,11.3c0.2,0.7,1,1.2,1.6,1.8
			c21.9-4.6,44-8.5,65.3-14.1c22.3-5.9,44-13.4,65.9-20.3c8.8-2.7,17.6-5.6,26.5-8.2c2.2-0.6,5-1.2,7.1-0.7
			c13.8,3.3,28,5.4,39.6,13.3c11,7.5,13.5,14.7,7.1,24.8c-2.9,4.6-14.4,10-20.1,7.9c-17.3-6.2-35.1-2.6-52.7-3.6
			c-13.3-0.7-25.5,1.4-37.3,6.1c-4.6,1.8-9.7,3-14.7,4c-6.5,1.4-13.3,2-19.7,3.7c-20.8,5.6-41.7,11.2-62.2,17.6
			c-7.5,2.3-14.9,5.9-20.6,10.4c-7.1,5.6-12.5,12.7-18.5,19.2c-17.2,18.5-34.2,37.2-51.6,55.6c-16.1,17-32.8,33.7-49.3,50.5
			c-0.8,0.8-1.7,1.5-2.1,2.4c-8.2,16.8-26.4,25.5-43.8,34.5c-15.6,8.1-32.5,14.7-49,21.6c-11.1,4.6-23.8,4.4-35.8,6.1
			c-7.7-3.6-15.2-0.6-22.8,0.1c-7.5,0.7-15.2,0.4-22.8-0.1c-6.2-0.4-7.4-3.1-3.2-6.8c2.4-2.2,5.5-3.9,8.5-5.5
			c7.1-3.9,14.6-7.2,21.4-11.3c12.7-7.6,25.3-15.4,37.5-23.6c17.4-11.6,34.6-23.4,51.7-35.4c21.3-15,42.4-30.1,59.8-48.6
			c11.8-12.6,24.2-24.7,34.4-38.2c0.9-1.1,1.4-2.4,2.8-4.9c-4,1.1-6.6,1.7-8.9,2.5c-24,8.7-48.6,16.1-73.7,22.4
			c-5.7,1.4-11.3,4-15.9,7.1c-6.9,4.7-14.3,8.4-22.9,10.4c-4.5,1.1-8.6,2.7-10.8,6.3c-2.4,3.9-7.3,4.2-11.5,5.3
			c-4.2,1.1-7.9,3.2-13,1c-5.5-2.4-12.3-3-17.7-5.4c-7.6-3.4-8.1-12.7-1.3-17c8.1-5.2,15.6-10.8,25.1-14.6
			c10-4.1,19.4-9.4,28.3-14.9c12.1-7.4,26.1-11,40.6-12.8c14.1-1.8,27.1-5.9,40.4-9.7c14.7-4.2,29.4-8.3,43.9-13
			c9.3-3,19.3-5.7,26.8-10.7c8.9-5.9,14.7-14.3,13.9-24.8c-4.8-1.7-9.5-2.9-13.7-4.9c-13.9-6.4-27.6-13-41.3-19.7
			c-2-1-4-2.7-4.6-4.4c-6.5-17.6-19.8-32.5-30.6-48.3c-3.8-5.6-5.7-11.6-6-17.8c-0.1-2.5,0.9-5.3,2.3-7.6c2-3.3,4.8-6.3,7.4-9.3
			c6.7-7.7,15.7-8.6,24.7-2.4c1.6,1.1,3.4,2.3,4.6,3.7c7.7,9.2,19.7,11.7,31.9,13c8.5,0.9,14.3,4.2,19.1,9.3
			c6.7,7.2,11.9,14.9,14.7,23.8c1.6,5.1,5.4,9.8,8.3,14.7C1467.7,650.8,1469,653,1470.7,655.9z M1420.6,761.8
			c-3.6,3.7-6.6,6.7-9.4,9.8c-12,13.3-23.4,27.1-36.1,40c-10,10.2-19.4,20.9-32.4,29c-7.5,4.7-14.4,9.9-21.5,14.9
			c-9,6.3-17.8,12.7-26.9,19c-10.2,7-20.4,14.1-30.9,20.7c-15.9,10-32.1,19.6-48.2,29.4c-5.2,3.1-11.3,5.4-17.3,10.6
			c6.9,0.2,11.6,0.2,16.4,0.4c9.7,0.3,19.3-5.4,29.1,0c0.2,0.1,0.6,0.1,0.9,0c10.4-2,21.6-2.7,30.9-6.4c17.1-6.9,35-12.7,50.7-22
			c15.5-9.2,31.8-17.5,40-32.5c0.9-1.6,2.3-2.9,3.6-4.3c10.3-11,20.5-22.1,31.1-33c8.9-9.1,18.5-17.7,27.2-26.9
			c18-18.9,35.9-37.9,53.4-57.2c4.7-5.2,10-8.9,16.7-12.6c9.3-5.1,19.3-8.2,29.6-11c11-3,22.2-5.4,33.2-8.3
			c4.6-1.2,8.8-3.7,13.5-4.4c18.1-2.8,35.4-7.7,52.5-13.1c3-1,6.5-1.5,9.6-1.3c12.5,0.9,25.1,1.9,37.5-0.1c5.1-0.8,9.9-1.3,14.1,2.5
			c1.5,1.3,4.4,1.7,6.7,2.3c7.7,2.1,13.2,0.7,16.7-4.1c4.3-6,4-11.3-2.2-15.4c-5.7-3.7-12.1-6.9-18.5-9.7c-17-7.4-33.6-6.4-49.7,1.7
			c-2.3,1.2-5,1.9-7.5,2.7c-13.8,4.1-27.8,7.6-41.2,12.3c-18.6,6.5-37.7,11.3-57.6,14.3c-9.3,1.4-18.3,3.9-27.3,6.2
			c-6.3,1.6-6.8,1.6-9.3-3.7c-1.8-3.9-4.4-8-9.5-8.4c-10-0.7-16-5.5-21.5-11.3c-0.3-0.3-1.1-0.3-2-0.5c-2.8,1.5-5.9,3.1-8.2,4.3
			c-0.7,4.2-0.4,8.1-2.1,11.3c-2.8,5.4-7,10.4-10.4,15.6c-1.7,2.7-2.8,5.6-4,7.9c-6.8,2-13.7,4-20.5,6.2c-3.4,1.1-6.6,2.5-10.1,3.5
			c-16.1,4.7-32.1,9.5-48.4,13.8c-11.6,3.1-23.3,6.1-35.1,8.3c-17.5,3.2-34.3,7.3-48.1,17.1c-1.6,1.1-3.5,1.9-5.3,2.8
			c-9.8,4.4-19.9,8.6-29.4,13.3c-3.2,1.6-5.8,4.4-8,7c-2.6,3.1-1.9,6.7,2,8.5c13.4,6,26.4,9.1,37.9-2.2c2-1.9,5-3.4,7.9-4.4
			c9.2-3.4,18.3-6.6,25.9-12.3c3.6-2.7,8.8-4.3,13.6-5.8c22.2-6.9,44.6-13.5,66.9-20.3c6.3-1.9,12.3-4.4,18.6-6.3
			C1412.5,758.2,1417.4,757.2,1420.6,761.8z M1552.8,627.5c-0.1,7.7-5.1,13.7-10.9,19.3c-1,0.9-3.5,1.8-4.7,1.4
			c-10.2-3.1-18.5,2.4-27.7,3.4c-5.1,0.5-10,2.2-14.9,3.5c-6.4,1.6-12.8,3-19,5.1c-6.6,2.2-7.8,2.2-12-2.9
			c-5.3-6.5-9.9-13.3-11.6-20.9c-1.5-7.1-5.6-13.1-10.4-18.9c-5.1-6-11.4-10.3-20.8-11.2c-3.6-0.3-7.2-1.2-10.7-2.1
			c-7.1-1.8-13.6-4.2-18.2-9.5c-2.6-3-6.2-5.5-9.9-7.8c-4.6-2.8-10.4-2.8-13.4,0.4c-4.2,4.5-8.2,9.3-7.5,15.5
			c1,8.5,4.3,16.7,10.4,23.6c9.4,10.6,16.9,21.9,21.9,34.2c1.8,4.4,4.7,7.9,10,10.3c12,5.5,23.7,11.4,35.7,17
			c11.6,5.4,20.4,2.6,25.1-7.6c1-2.3,1.9-5.3,4.1-6.4c7.8-3.6,16.1-6.6,24.4-9.6c1.4-0.5,3.8-0.5,5.2,0.1c5.6,2.4,11.3,4.8,16.4,7.9
			c4.6,2.8,9.5,3,14.8,2.9c3.8,0,7.7,0.7,11.4,1.7c3.5,0.9,6.6,2.6,9.9,4c5,2.2,9.9,2.7,14.7-0.2c8.3-5,16.7-9.9,24.8-15.2
			c7.1-4.6,13.8-9.6,20.4-14.7c8.5-6.6,17.8-12.6,19.4-23.3c1.3-8.5,3.5-17,6.2-25.3c4.6-14.6,9.8-29,14.7-43.4
			c0.3-0.9,0.7-1.9,1.3-2.7c4.8-6,2.9-11.3-2.8-16.1c-3.6-3-7-6.5-11.3-8.6c-6.7-3.3-12.3-7.3-17-12.3c-6.1-6.4-11.2-7.3-19.9-3.6
			c-10.2,4.4-20.3,9.1-30.2,13.9c-11.3,5.5-23.1,10.4-35.7,12.9c-12.6,2.5-24.6,5.7-36.4,9.7c-8.9,3.1-17.7,6.8-27.9,6.9
			c-7.9,0-11.4,4.2-14.7,9.3c7.4,1.9,14.1,3.6,20.8,5.4c8.5,2.3,16.8,4.9,25.4,6.8c4,0.9,8.6,1.2,12.5,0.5
			c16.7-2.8,33.5-5.5,49.8-9.5c9.9-2.4,16,1.5,15.5,10c-0.5,8.4-4.5,15.8-9.7,22.9c-2.3,3.1-5.6,4.5-10.8,3.8
			c-8.7-1.2-17.8-0.9-26.5-2.4c-19.8-3.2-36.8,1.9-53.2,9.7c-2.4,1.1-5,2.2-4.4,5c0.7,3,3.6,3.8,6.8,4.2c3.6,0.5,7.4,0.7,10.8,1.7
			c11.5,3.2,22.8,2.8,34.3,0.2C1535.1,624.5,1543.5,621.9,1552.8,627.5z"/>
		<path id="XMLID_339_" fill="#231815" d="M1353.8,496.6c-6.9-12.2-8.4-24.7-10.1-36.8c-0.8-5.9,3.8-12.2,6-18.3
			c1.5-4.2,3.6-8.4,4.8-12.7c1.7-6,4.9-8.6,12.8-9.7c7.5-1,9.9-0.1,14.2,5.6c1.1,1.5,1.9,3.1,2.7,4.7c1.8,3.7,4.9,6.1,9.7,7.4
			c2.5,0.6,5.1,1.8,7,3.3c7.2,5.4,14.1,11,21,16.7c4.8,3.9,5.2,4.3,11.9,1.8c5.8-2.1,11.3-4.7,17-7.1c2.7-1.1,5.2-2.7,8.1-3.3
			c6.2-1.3,8.2,0,9.3,5.1c0.1,0.5-0.1,1.1,0.2,1.5c6.4,7.4,1,14.1-1.5,21c-1.4,3.8-2.9,7.5-4.7,12c11.6,0.1,22.9,2.6,34.3-0.3
			c5.1-1.3,8.4-3.7,10.2-7.8c4.1-9.3,8.3-18.6,12.6-27.8c2.8-6,6.2-11.7,9-17.7c3.6-7.6,7.6-15.2,10.1-23
			c3.7-11.4,6.3-23.1,9.2-34.7c0.4-1.4,0.3-3,0.1-4.4c-2.4-15.2-4.9-30.4-7.3-45.6c-0.8-5.2-1.8-10.3-2.3-15.5
			c-0.3-4.3,0.5-9.3,6-10.7c5.8-1.4,12.5-2.8,17.9,2.4c2.2,2.1,5.8,3.5,9.1,4.7c7.9,2.9,14.5,7.1,17.6,13.5
			c5,10.3,13.2,18.5,23.1,25.6c7.1,5.1,9.5,11.5,10.5,18.4c0.7,4.7,0.2,9.2-6.3,12.1c-2.7,1.2-4.7,4.5-5.6,7.1
			c-2.5,7.1-4,14.5-6.2,21.6c-4.8,15.5-14.2,29.4-22.8,43.5c-1.4,2.4-2.9,4.7-5.1,8.4c3.5-0.8,5.5-1.1,7.3-1.7
			c10.4-3.4,20.6-7.3,31.1-10.3c8.8-2.6,15.4-6.5,19.3-13.6c3.1-5.6,6.7-11,10.2-16.5c0.9-1.4,2.6-2.5,4.2-4.2
			c2.3,1.9,4.2,3.3,6.1,4.8c1.7-0.6,3.3-1.1,4.9-1.7c0.9,0.7,1.7,1.1,2.1,1.7c1.9,2.8,4,5.6,5.4,8.6c4.2,9,8.5,18,14.3,26.5
			c4.9,7.1,2.9,8.8-3.7,14.8c-11.2,10.2-25.9,16.4-40,22.9c-13.8,6.4-29.3,9.3-45.2,10.7c-4.6,0.4-9.1,1-13.6,1.9
			c-11.3,2.1-22.4,4.9-33.9,6.5c-10.5,1.4-17.6,6.5-24.2,12.2c-9.4,8.2-20.9,10.3-34.3,8.2c-2.9-5.7,3.3-9.9,3.2-15.3
			c-2.1,0-4-0.5-5.5-0.1c-8.4,2.5-16.8,1.9-25.4,0.7c-5-0.7-10.2-0.1-16.1-0.1c0.7,2.7,1.3,4.3,1.5,6c0.4,3.6,0.7,7.3,0.9,10.9
			c0.1,2.2-0.7,4.6-0.1,6.7c2.1,6.8-0.6,11.8-7.1,16.1c-2.9,1.9-5.2,3.3-8.9,2.1c-0.6-0.2-1.2-0.4-1.8-0.5
			c-9.1-1.2-18.8-1.1-27.1-3.9c-8.3-2.7-15.2-8.2-23.2-12.8c-3.3,1.9-6.3,3.5-9.2,5.2c-8.9,5.2-17.1,5-26.2,0.1
			c-7.4-3.9-15.3-7.3-23.2-10.6c-9.4-3.9-15.1-10.6-21.5-16.9c-0.2-0.2-0.4-0.5-0.3-0.7c2.3-5.8,4.4-11.7,7.3-17.2
			c0.9-1.7,3.9-3,6.3-3.8c3.8-1.3,7.8-1.4,11.5,0.5c6.7,3.5,13.9,3.4,21.3,2.3C1346.2,496.9,1349.6,496.9,1353.8,496.6z M1374,424.3
			c-12-0.1-15.3,5-16.9,11.6c-0.7,2.6-2.1,5.1-3.4,7.6c-3.7,7.1-7,14-2.6,22.1c2,3.7,1.5,8.3,2.3,12.5c1.3,5.9,3.4,11.5,9,15.9
			c1.3,1,2.5,2.3,3,3.7c0.6,1.5,1.1,3.3,0.4,4.6c-0.4,0.8-3.1,1.1-4.7,1.1c-8.3,0-16.6-0.7-24.7-0.1c-6.4,0.4-12,0.3-17.4-2.9
			c-1.6-0.9-5.4-1.3-6.5-0.5c-3.6,2.6-6.8,5.6-9.3,8.9c-1.8,2.4-1.1,5.1,1.8,7.4c7,5.6,13.4,11.5,22.8,14.9
			c6.7,2.4,12.8,5.8,19.2,8.7c8.1,3.8,12.8,3.5,20.2-1c3.1-1.9,6.4-3.7,10.1-5.9c4.9,2.3,10.4,3.9,14.2,6.9c7.9,6.1,17.7,7.7,27.7,9
			c2.7,0.4,5.5,0.6,8.2,0.9c7.6,1,12.2-1,11.6-6.8c-1-8.7,2.8-17.6-2.4-26.3c-3.1-5.2-0.7-7.9,6.5-8.6c5.7-0.5,11.7-0.5,17.4,0.2
			c8,1.1,15.7,1.4,23.5-0.9c3.9-1.2,8.3-1.8,11.9,1.3c0.6,5-5.1,9.1-2.8,14.7c2.5,0.2,5,0.8,7.2,0.4c7.5-1.4,14.5-3.7,19.7-8.7
			c6.9-6.6,14.3-12.7,26.3-12.4c0.9,0,1.8-0.3,2.7-0.5c13-2.6,25.9-5.8,39.1-7.5c13.3-1.7,26.1-4.8,39-7.6
			c11.4-2.5,20.6-8.5,30.3-13.6c6.3-3.3,12-7.5,17.7-11.4c3.9-2.7,3.5-5.7,1.1-9.3c-4.3-6.3-7.9-12.9-11.7-19.4
			c-1.8-3.1-3.4-6.3-4.6-8.5c-4.7-1.3-8.4-2.3-12.9-3.6c-1.6,2.7-3.7,5.9-5.4,9.3c-4.4,8.7-11.8,14.9-23,17.8
			c-18.1,4.7-34.9,11.4-50.6,20.1c-0.8,0.5-2.2,0.2-4.1,0.4c0.4-2.2,0.3-4,1.2-5.4c4.2-7.1,8.6-14.1,12.9-21.1
			c5.5-9.3,11.9-18.4,16.1-28.1c4.1-9.5,5.8-19.6,9.1-29.4c1.2-3.4,3.1-7.2,6.2-9.5c7-5.3,7.7-6.4,5.2-13.6
			c-2.4-6.9-8.9-11.3-14.7-16c-5.7-4.6-10.5-9.5-14.2-15.4c-3.7-5.9-7.2-12.4-14.7-15.9c-5.3-2.5-10.7-4.3-15.3-7.9
			c-5.3-4.1-11.4-1.8-12.2,4.2c-0.3,2.2,0.2,4.4,0.6,6.6c2.9,13.2,5.6,26.4,5.1,39.9c-0.1,2.7,0.5,5.6,1.8,8
			c3.9,7.4,2.9,14.5,0,21.7c-0.7,1.6-1.3,3.3-1.7,5c-3.9,17.9-12.1,34.6-20.4,51.3c-6.6,13.2-12.3,26.8-18,40.3
			c-1.1,2.7-2.7,4-5.6,5.2c-9.2,3.9-18.9,5.2-29.3,4.6c-7.2-0.4-14.5-0.4-23.3-0.6c2.4-5,4-9.2,6.2-13.1c4.7-8.2,8.3-16.3,2.8-25.5
			c-4.6-1.9-8,0.8-11.7,2.2c-6.6,2.6-12.9,5.5-19.7,7.9c-7.7,2.7-8.5,2.3-13.9-3.1c-1.6-1.5-2.8-3.3-4.6-4.7
			c-6.8-5.3-12.2-12-21.4-15c-5.3-1.7-8.4-4.6-10.7-8.6C1378.5,429.7,1375.8,426.7,1374,424.3z"/>
		<path id="XMLID_336_" fill="#231815" d="M1448.8,986.1c-5.4,2.3-10.2,4.3-14.9,6.4c-6,2.7-11.4,6.7-19.3,5.5
			c-1.6-0.2-3.6,1.4-5.5,2.2c-6.9,3-13.8,6.1-20.8,9.1c-3,1.3-6,1.3-8.3-1c-2.6-2.7-1.2-5.3,1.3-7.3c16.5-12.8,28.1-28.5,39.2-44.4
			c9.9-14.1,19.4-28.5,25.9-44c2.1-4.9,5-9.5,7.4-14.3c0.9-1.7,1.4-3.6,2-5.4c-1-0.4-1.7-0.8-2.1-0.7c-11.2,3.3-21.4,1.3-31.5-3.5
			c-5.7-2.7-12.4-4-19.1-6.1c0.4-1.6,0.3-3,1.1-3.9c6.9-7.6,14.2-14.3,27.1-16c13.7-1.8,25.5-8.1,36.9-14.2c6.6-3.5,8.6-9.7,10-16
			c3-13.8,6.3-27.7,10.3-41.3c2.7-9.2,10.9-10.7,19.8-4.4c2.5,1.7,5.4,3.4,8.4,4.3c15.4,4.5,25.6,13.2,32.6,24.8
			c0.7,1.1,1.3,2.2,2,3.3c9.8,1.8,18.5-1.2,27.2-3.1c14.8-3.3,27-0.5,36.4,9.6c9.9,10.6,21.8,19.5,34.3,28
			c7.8,5.3,12.1,12.4,12.7,20.7c1.1,13.4-2.8,26-9.8,38.1c-7.5,13-14.9,26-22.7,38.8c-3.8,6.2-8.3,12-12.5,18.1
			c-10.2,14.6-20.4,29.2-30.5,43.8c-9,13.2-20.2,24.6-35.8,33.1c-12.2,6.6-25.3,10.9-39.3,10.1c-4.8-3.2-9.3-5.7-13.2-8.7
			c-3.3-2.5-7.4-5.2-8.6-8.4c-4.5-11.4-14-19.7-24.4-27.5c-8.1-6.1-14.8-12.6-14.7-22.2C1450.7,988.8,1450,988.1,1448.8,986.1z
			 M1450.9,977.8c2.5,3.5,6.1,6.1,6.1,8.8c0,10,7.1,16.6,15.1,23c7.2,5.8,14.8,11.5,19.1,19c3.7,6.3,8.4,11.3,14.7,16.4
			c8.5,6.8,17.1,6.7,26,4.3c17.3-4.7,31.4-14.3,40.9-26.3c17.3-21.8,33-44.4,47.9-67.3c11.7-17.8,22.1-36.3,31.6-55
			c8.2-16,4.8-34.6-14.9-46.7c-9.8-6.1-18.3-13.2-25.7-21.3c-9.7-10.5-20.7-13.2-36.3-10.2c-8,1.5-16.2,2.2-24.4,3.1
			c-4.6,0.5-7.5-1.3-9-4.9c-5.2-12-15.3-20.1-30-24.5c-2.8-0.9-5.5-2.3-7.9-3.8c-6.9-4.1-8.6-3.8-11.4,2.5c-0.5,1.2-0.8,2.4-1.1,3.6
			c-2.9,12.4-6,24.7-8.4,37.2c-1.3,7-4.6,13.4-11.5,17.1c-13.4,7.3-27.5,14.2-43.7,16.6c-7.8,1.2-12.5,4-15.5,9.8
			c6,2.1,12,3.5,17.1,6c8.3,3.9,16.4,3.4,24.8,1.2c2-0.5,4-1.4,6-1.7c2.9-0.4,5.5,0.1,6.1,1.8c-19.9,42.1-42.3,82.1-78.9,116.4
			c8.1-0.3,13.6-3.4,18.7-6.7c4.1-2.7,7.8-5,13.8-4.1c2.5,0.4,5.7-1.4,8.3-2.7C1435.4,985.8,1442.2,982.2,1450.9,977.8z"/>
		<path id="XMLID_333_" fill="#231815" d="M1864.4,883.2c-19.1-2.1-38.3-4-57.3-6.4c-5-0.6-9.7-3-14.7-4.1c-4-0.9-8.2-1.1-12.4-1.5
			c-3.2-0.3-6.6,0.2-9.7-0.5c-12.7-2.9-23.4-8.2-32.3-16.5c-10.6-9.8-24-17-37.3-24.2c-13.4-7.2-26-15-37.3-24.3
			c-11-9-22.8-17.4-37.3-22.8c-5.2-2-9.9-5.1-14.4-8c-7.2-4.7-13.8-10-21-14.6c-4.8-3-10-5.9-15.6-7.8c-7.5-2.6-9-7.6-10.2-13
			c-0.2-1.1,1.1-3,2.3-3.6c5.6-2.6,11.4-4.7,18.2-2.3c3.6,1.2,7.6,2.1,11.5,2c8.6,0,15.1,3.2,21.6,7.3c5.8,3.6,11.8,7.2,18,10.3
			c13.4,6.6,26.9,13,40.4,19.4c4.2,2,8.7,3.7,13,5.6c16.6,7.6,32.9,15.5,49.7,22.8c14.9,6.4,30.4,11.9,45.4,18.2
			c25,10.5,52,16.4,78.8,22.7c18.2,4.3,36.8,7.6,55.3,11.1c7.9,1.5,15.1,9.9,13.5,16.2c-0.9,3.8-4.6,7.2-9.3,7
			c-17.5-0.6-33.8,4-50.7,6c-2.7,0.3-5.5,0.3-8.2,0.5C1864.5,882.9,1864.5,883,1864.4,883.2z M1571.8,740.2c-0.2,4,3.3,5.7,7,7.1
			c12.3,4.9,21.6,13.1,32.3,19.6c6.9,4.2,13.4,8.9,20.9,12.2c14.5,6.4,27.1,14.6,38.4,24.2c8.8,7.4,18.8,13.5,29.3,19.2
			c12.9,7.1,26.3,13.7,37.9,22.3c5.2,3.9,9.8,8.3,15.3,11.8c9.3,5.9,19.2,10.7,32,8.2c2.9-0.6,6.6,0.5,9.5,1.6
			c10.1,4,20.8,5.9,31.8,6.9c12.8,1.1,25.6,2.4,38.4,3.4c4.2,0.3,8.6,0.3,12.8-0.3c9.9-1.4,19.8-3.2,29.7-4.7
			c4.5-0.7,9.2-0.6,13.6-1.4c2.1-0.4,5.2-1.9,5.4-3.1c0.3-1.8-1.2-4.2-2.7-5.8c-1.2-1.2-3.6-1.9-5.6-2.3c-12.4-2.7-24.9-5.1-37.3-8
			c-23.6-5.4-47.3-10.7-70.6-16.9c-12.5-3.3-24.2-8.4-36.3-12.8c-9-3.3-18.1-6.3-26.6-10.2c-19.1-8.6-37.8-17.6-56.8-26.3
			c-5.6-2.6-11.3-5-16.8-7.7c-10.1-4.8-20.2-9.5-30.1-14.5c-10.4-5.2-20.7-10.6-30.8-16.2c-5.2-2.9-10.5-4.9-16.9-5.1
			c-4.2-0.1-8.6-0.8-12.5-2C1578.7,738.1,1575.2,738,1571.8,740.2z"/>
		<path id="XMLID_332_" fill="#231815" d="M1420.6,761.8c-3.2-4.6-8.1-3.6-12.7-2.2c-6.3,1.9-12.3,4.4-18.6,6.3
			c-22.3,6.8-44.6,13.4-66.9,20.3c-4.8,1.5-10,3.1-13.6,5.8c-7.6,5.8-16.7,9-25.9,12.3c-2.9,1.1-6,2.5-7.9,4.4
			c-11.5,11.3-24.5,8.2-37.9,2.2c-3.9-1.7-4.6-5.3-2-8.5c2.2-2.6,4.8-5.4,8-7c9.6-4.7,19.6-8.9,29.4-13.3c1.8-0.8,3.8-1.6,5.3-2.8
			c13.8-9.8,30.6-13.9,48.1-17.1c11.9-2.2,23.6-5.2,35.1-8.3c16.2-4.4,32.3-9.2,48.4-13.8c3.4-1,6.7-2.4,10.1-3.5
			c6.8-2.1,13.6-4.1,20.5-6.2c1.2-2.3,2.3-5.2,4-7.9c3.4-5.3,7.6-10.2,10.4-15.6c1.7-3.2,1.4-7.1,2.1-11.3c2.3-1.2,5.3-2.8,8.2-4.3
			c0.9,0.2,1.8,0.2,2,0.5c5.5,5.8,11.4,10.6,21.5,11.3c5.1,0.4,7.7,4.4,9.5,8.4c2.5,5.3,3,5.3,9.3,3.7c9-2.2,18.1-4.7,27.3-6.2
			c19.9-3.1,39-7.9,57.6-14.3c13.4-4.7,27.5-8.2,41.2-12.3c2.6-0.8,5.2-1.5,7.5-2.7c16.1-8.1,32.7-9,49.7-1.7
			c6.5,2.8,12.9,5.9,18.5,9.7c6.2,4.1,6.5,9.4,2.2,15.4c-3.5,4.9-9,6.2-16.7,4.1c-2.3-0.6-5.3-1-6.7-2.3c-4.2-3.8-9-3.3-14.1-2.5
			c-12.5,2-25,1-37.5,0.1c-3.2-0.2-6.7,0.3-9.6,1.3c-17.1,5.5-34.3,10.3-52.5,13.1c-4.7,0.7-8.9,3.2-13.5,4.4
			c-11,2.9-22.2,5.3-33.2,8.3c-10.3,2.8-20.3,5.9-29.6,11c-6.7,3.6-12,7.4-16.7,12.6c-17.5,19.3-35.4,38.3-53.4,57.2
			c-8.7,9.2-18.4,17.8-27.2,26.9c-10.6,10.9-20.7,21.9-31.1,33c-1.3,1.4-2.7,2.7-3.6,4.3c-8.2,15-24.5,23.3-40,32.5
			c-15.6,9.2-33.5,15.1-50.7,22c-9.3,3.7-20.5,4.4-30.9,6.4c-0.3,0.1-0.7,0.1-0.9,0c-9.8-5.4-19.4,0.3-29.1,0
			c-4.7-0.1-9.5-0.2-16.4-0.4c6-5.3,12.1-7.5,17.3-10.6c16.1-9.7,32.3-19.4,48.2-29.4c10.6-6.6,20.7-13.7,30.9-20.7
			c9.1-6.2,17.9-12.7,26.9-19c7.1-5,14.1-10.2,21.5-14.9c13-8.1,22.4-18.8,32.4-29c12.7-12.9,24.1-26.6,36.1-40
			C1414.1,768.5,1417.1,765.5,1420.6,761.8z"/>
		<path id="XMLID_331_" fill="#231815" d="M1552.8,627.5c-9.3-5.6-17.6-3-25.8-1.2c-11.5,2.5-22.8,3-34.3-0.2
			c-3.4-1-7.2-1.2-10.8-1.7c-3.2-0.5-6.1-1.2-6.8-4.2c-0.6-2.8,2-3.8,4.4-5c16.4-7.8,33.4-12.9,53.2-9.7c8.7,1.4,17.7,1.1,26.5,2.4
			c5.2,0.7,8.5-0.7,10.8-3.8c5.2-7,9.2-14.4,9.7-22.9c0.5-8.5-5.6-12.4-15.5-10c-16.3,4-33.1,6.7-49.8,9.5c-4,0.7-8.6,0.4-12.5-0.5
			c-8.6-1.9-16.9-4.5-25.4-6.8c-6.7-1.8-13.4-3.5-20.8-5.4c3.3-5.1,6.8-9.2,14.7-9.3c10.1,0,18.9-3.8,27.9-6.9
			c11.8-4.1,23.8-7.3,36.4-9.7c12.7-2.5,24.5-7.4,35.7-12.9c9.9-4.9,20-9.5,30.2-13.9c8.7-3.8,13.8-2.8,19.9,3.6
			c4.8,5,10.3,9,17,12.3c4.3,2.1,7.7,5.6,11.3,8.6c5.7,4.8,7.6,10.1,2.8,16.1c-0.6,0.8-1,1.8-1.3,2.7c-5,14.5-10.1,28.9-14.7,43.4
			c-2.6,8.3-4.9,16.8-6.2,25.3c-1.6,10.7-10.9,16.7-19.4,23.3c-6.6,5.1-13.4,10.1-20.4,14.7c-8,5.3-16.5,10.2-24.8,15.2
			c-4.8,2.9-9.7,2.3-14.7,0.2c-3.3-1.4-6.4-3-9.9-4c-3.6-1-7.6-1.7-11.4-1.7c-5.3,0-10.1-0.2-14.8-2.9c-5.1-3-10.8-5.4-16.4-7.9
			c-1.4-0.6-3.7-0.7-5.2-0.1c-8.3,3-16.6,6-24.4,9.6c-2.2,1-3,4.1-4.1,6.4c-4.7,10.2-13.5,13-25.1,7.6c-12-5.6-23.7-11.5-35.7-17
			c-5.2-2.4-8.2-5.9-10-10.3c-5-12.4-12.4-23.6-21.9-34.2c-6.1-6.9-9.4-15.1-10.4-23.6c-0.7-6.1,3.3-11,7.5-15.5
			c3-3.2,8.8-3.2,13.4-0.4c3.7,2.2,7.3,4.8,9.9,7.8c4.5,5.3,11,7.7,18.2,9.5c3.5,0.9,7.1,1.8,10.7,2.1c9.4,0.8,15.7,5.1,20.8,11.2
			c4.9,5.8,8.9,11.8,10.4,18.9c1.7,7.7,6.2,14.5,11.6,20.9c4.1,5,5.4,5,12,2.9c6.1-2,12.6-3.5,19-5.1c4.9-1.3,9.8-2.9,14.9-3.5
			c9.3-1,17.6-6.5,27.7-3.4c1.2,0.4,3.7-0.5,4.7-1.4C1547.7,641.2,1552.6,635.1,1552.8,627.5z"/>
		<path id="XMLID_330_" fill="#231815" d="M1374,424.3c1.8,2.5,4.4,5.5,6.2,8.8c2.3,4.1,5.4,6.9,10.7,8.6c9.1,3,14.5,9.7,21.4,15
			c1.8,1.4,3,3.1,4.6,4.7c5.4,5.4,6.2,5.7,13.9,3.1c6.7-2.3,13.1-5.3,19.7-7.9c3.7-1.5,7.1-4.2,11.7-2.2c5.4,9.1,1.9,17.3-2.8,25.5
			c-2.3,3.9-3.9,8.1-6.2,13.1c8.8,0.2,16.1,0.1,23.3,0.6c10.4,0.6,20.1-0.7,29.3-4.6c2.9-1.2,4.5-2.5,5.6-5.2
			c5.7-13.5,11.4-27,18-40.3c8.3-16.7,16.5-33.4,20.4-51.3c0.4-1.7,1-3.4,1.7-5c2.9-7.2,3.9-14.4,0-21.7c-1.3-2.4-1.9-5.3-1.8-8
			c0.5-13.5-2.2-26.7-5.1-39.9c-0.5-2.2-0.9-4.4-0.6-6.6c0.8-6,6.9-8.3,12.2-4.2c4.6,3.6,10.1,5.5,15.3,7.9c7.5,3.5,11,10,14.7,15.9
			c3.7,5.9,8.5,10.8,14.2,15.4c5.8,4.7,12.3,9.1,14.7,16c2.5,7.2,1.8,8.3-5.2,13.6c-3.1,2.3-5,6.1-6.2,9.5c-3.3,9.7-5,19.9-9.1,29.4
			c-4.2,9.7-10.6,18.8-16.1,28.1c-4.2,7.1-8.7,14-12.9,21.1c-0.8,1.4-0.7,3.2-1.2,5.4c1.9-0.2,3.3,0.1,4.1-0.4
			c15.6-8.7,32.5-15.4,50.6-20.1c11.2-2.9,18.5-9.1,23-17.8c1.7-3.4,3.8-6.6,5.4-9.3c4.5,1.2,8.1,2.2,12.9,3.6
			c1.2,2.2,2.7,5.4,4.6,8.5c3.8,6.5,7.4,13.1,11.7,19.4c2.4,3.6,2.9,6.6-1.1,9.3c-5.8,3.9-11.4,8.1-17.7,11.4
			c-9.7,5.1-18.9,11-30.3,13.6c-12.9,2.9-25.7,5.9-39,7.6c-13.2,1.7-26.1,4.9-39.1,7.5c-0.9,0.2-1.8,0.5-2.7,0.5
			c-12-0.3-19.4,5.8-26.3,12.4c-5.2,5-12.2,7.2-19.7,8.7c-2.2,0.4-4.7-0.2-7.2-0.4c-2.3-5.6,3.3-9.8,2.8-14.7
			c-3.6-3.1-8-2.5-11.9-1.3c-7.8,2.3-15.4,1.9-23.5,0.9c-5.7-0.7-11.7-0.7-17.4-0.2c-7.3,0.6-9.7,3.3-6.5,8.6
			c5.2,8.7,1.4,17.5,2.4,26.3c0.6,5.8-4,7.8-11.6,6.8c-2.7-0.4-5.5-0.6-8.2-0.9c-10-1.3-19.8-2.8-27.7-9c-3.8-3-9.3-4.6-14.2-6.9
			c-3.7,2.2-7,4-10.1,5.9c-7.4,4.5-12.1,4.8-20.2,1c-6.4-3-12.5-6.3-19.2-8.7c-9.3-3.4-15.8-9.3-22.8-14.9c-2.8-2.3-3.6-5.1-1.8-7.4
			c2.5-3.3,5.7-6.3,9.3-8.9c1.2-0.8,5-0.4,6.5,0.5c5.4,3.3,11,3.3,17.4,2.9c8.2-0.5,16.5,0.1,24.7,0.1c1.7,0,4.3-0.3,4.7-1.1
			c0.7-1.3,0.2-3.2-0.4-4.6c-0.6-1.4-1.7-2.7-3-3.7c-5.6-4.4-7.7-10-9-15.9c-0.9-4.2-0.3-8.7-2.3-12.5c-4.4-8.1-1.1-15,2.6-22.1
			c1.3-2.5,2.8-5,3.4-7.6C1358.8,429.3,1362.1,424.2,1374,424.3z"/>
		<path id="XMLID_327_" fill="#231815" d="M1450.9,977.8c-8.7,4.4-15.5,8-22.5,11.4c-2.6,1.2-5.8,3-8.3,2.7c-6-0.9-9.7,1.4-13.8,4.1
			c-5.1,3.4-10.6,6.4-18.7,6.7c36.6-34.3,59-74.3,78.9-116.4c-0.6-1.7-3.1-2.2-6.1-1.8c-2.1,0.3-4,1.1-6,1.7
			c-8.4,2.2-16.5,2.8-24.8-1.2c-5.2-2.5-11.1-3.9-17.1-6c3.1-5.8,7.7-8.6,15.5-9.8c16.2-2.4,30.3-9.3,43.7-16.6
			c6.9-3.7,10.1-10.1,11.5-17.1c2.4-12.5,5.6-24.8,8.4-37.2c0.3-1.2,0.6-2.4,1.1-3.6c2.7-6.3,4.5-6.7,11.4-2.5
			c2.5,1.5,5.1,2.9,7.9,3.8c14.7,4.5,24.8,12.5,30,24.5c1.5,3.6,4.5,5.4,9,4.9c8.2-0.9,16.4-1.5,24.4-3.1
			c15.7-2.9,26.7-0.2,36.3,10.2c7.4,8,15.9,15.2,25.7,21.3c19.6,12.2,23,30.7,14.9,46.7c-9.5,18.7-19.9,37.2-31.6,55
			c-15,22.9-30.7,45.5-47.9,67.3c-9.5,12-23.5,21.5-40.9,26.3c-8.9,2.4-17.5,2.5-26-4.3c-6.3-5-11-10.1-14.7-16.4
			c-4.4-7.5-11.9-13.2-19.1-19c-7.9-6.4-15.1-13-15.1-23C1456.9,983.9,1453.4,981.3,1450.9,977.8z M1514,997.9
			c12.2-14.6,24.5-28,35.3-42.2c13.2-17.4,25.3-35.4,37.7-53.2c5-7.2,7.8-15.2,5.8-23.5c-1.3-5.3-4.1-10.3-6.1-15.5
			c-3.2-8.2-9-14.1-19.8-16.9c-10.9-2.8-15.8-1.5-19.3,7.6c-1,2.6-1.4,5.3-2.6,7.9c-6.9,15.3-13.7,30.6-21.2,45.7
			c-2.2,4.5-6.1,8.4-9.6,12.5c-2.2,2.6-5.1,4.9-7.5,7.4c-13.6,13.9-27.2,27.7-40.7,41.6c-1.3,1.3-2.9,2.8-3.1,4.3
			c-1,5.4,6.3,13.4,13.2,15.2c7.9,2.1,15.6,4.4,23.5,6.4C1503.7,996.2,1508.1,996.8,1514,997.9z"/>
		<path id="XMLID_326_" fill="#231815" d="M1571.8,740.2c3.4-2.2,6.9-2.1,11.1-0.8c3.9,1.2,8.3,1.9,12.5,2
			c6.5,0.2,11.7,2.2,16.9,5.1c10.1,5.6,20.4,10.9,30.8,16.2c9.9,5,20,9.7,30.1,14.5c5.6,2.6,11.3,5.1,16.8,7.7
			c18.9,8.8,37.7,17.8,56.8,26.3c8.6,3.8,17.7,6.9,26.6,10.2c12,4.4,23.8,9.5,36.3,12.8c23.3,6.2,47,11.4,70.6,16.9
			c12.4,2.9,24.9,5.3,37.3,8c2,0.4,4.4,1.1,5.6,2.3c1.6,1.6,3,4,2.7,5.8c-0.2,1.2-3.3,2.7-5.4,3.1c-4.4,0.8-9.1,0.8-13.6,1.4
			c-9.9,1.5-19.7,3.3-29.7,4.7c-4.2,0.6-8.5,0.6-12.8,0.3c-12.8-1-25.6-2.2-38.4-3.4c-11-1-21.7-2.9-31.8-6.9
			c-2.9-1.1-6.6-2.1-9.5-1.6c-12.8,2.5-22.7-2.3-32-8.2c-5.5-3.5-10.1-8-15.3-11.8c-11.6-8.6-25-15.2-37.9-22.3
			c-10.5-5.7-20.5-11.8-29.3-19.2c-11.3-9.6-23.9-17.8-38.4-24.2c-7.5-3.3-14-8.1-20.9-12.2c-10.8-6.5-20-14.8-32.3-19.6
			C1575.1,745.9,1571.6,744.2,1571.8,740.2z"/>
		<path id="XMLID_323_" fill="#231815" d="M1514,997.9c-5.9-1.1-10.3-1.8-14.5-2.9c-7.9-2-15.7-4.3-23.5-6.4
			c-6.9-1.8-14.1-9.8-13.2-15.2c0.3-1.5,1.9-3,3.1-4.3c13.5-13.9,27.1-27.8,40.7-41.6c2.5-2.5,5.3-4.8,7.5-7.4c3.4-4,7.4-8,9.6-12.5
			c7.4-15.1,14.3-30.4,21.2-45.7c1.1-2.5,1.6-5.3,2.6-7.9c3.5-9.1,8.4-10.4,19.3-7.6c10.9,2.8,16.6,8.6,19.8,16.9
			c2,5.2,4.8,10.2,6.1,15.5c2,8.4-0.7,16.3-5.8,23.5c-12.4,17.8-24.5,35.8-37.7,53.2C1538.5,969.9,1526.2,983.4,1514,997.9z
			 M1588.4,886.8c-0.9-3-1.2-4.9-2-6.8c-2.3-5.4-5.3-10.6-7-16.1c-2.2-6.6-7.6-9.8-15.2-11.6c-6.8-1.5-7.6-1.2-10,4.1
			c-5.1,11.3-10.4,22.6-15.6,34c-1.8,3.9-3.2,8-5.2,11.8c-2.6,5-4.7,10.4-8.5,14.7c-11,12.4-22.8,24.3-34.4,36.4
			c-5.6,5.8-11.5,11.5-17,17.3c-3.4,3.6-2.9,6.7,1.6,9.6c2.1,1.3,4.7,2.2,7.3,3c5.5,1.6,11.1,2.8,16.5,4.5
			c9.1,2.8,15.2,1.6,20.8-4.7c5.9-6.6,12-13,17.2-20c14.9-20.3,29.5-40.7,43.9-61.3C1584.1,896.8,1586.1,891.3,1588.4,886.8z"/>
	</g>
	<g id="XMLID_307_">
		<path id="XMLID_314_" fill="#231815" d="M377.5,821.9c-3.3,1-6.2,2.4-9.1,2.7c-5.5,0.6-11.2,1.4-16.5,0.4
			c-7.1-1.3-8.7-7.4-3.6-12.6c5.5-5.6,12-10,20.2-10.7c3.6-0.3,7.2-0.6,11.4-2.6c-2.9-2-5.4-4.8-8.6-6
			c-17.8-6.8-31.7-19.7-46.8-30.6c-4.4-3.2-7.2-7.6-8.6-13.1c-2.7-10.8-9.1-19.4-17.6-26.1c-5.3-4.2-9.8-8.6-11.4-15.4
			c-0.2-0.8-1.1-1.4-2.5-2.9c-2.8,8.6-5.2,16.6-7.9,24.4c-4.7,13.7-9.4,27.3-14.3,40.8c-4,10.9-8.2,21.7-12.3,32.6
			c-1.1,2.9-2,6-3.5,8.7c-8.4,14.4-16.6,28.8-25.6,42.8c-6.3,9.7-13.7,18.6-20.6,27.9c-0.7,1-1.7,2-2.7,2.5
			c-10.9,5.7-18.9,15-28.3,22.6c-14.7,12-30.6,22.4-49.9,26c-3.5,0.6-6.7,3-9.8,5.1c-11.6,7.6-24.1,12.6-37.8,9.1
			c-11.3-2.9-22.8-6.5-33.1-12c-12.3-6.5-16.3-19.3-12.4-33.3c1.4-5.2,2.1-10.3,1.4-15.8c-0.5-3.4,0.4-7.4,1.8-10.7
			c7.6-17.2,19.1-31.3,33.8-42.9c2.9-2.3,4.9-5.6,7.6-8.2c3.9-3.8,8.9-2.4,9.7,3c0.6,3.9-0.1,8.1-0.4,12.1
			c-0.3,3.3-0.9,6.6-1.4,10.3c3.5,0.2,5.9,0.4,8.6,0.6c1,2.4,2,4.9,3.5,8.7c5.7-5.6,11.1-10.2,15.7-15.5
			c12.9-14.9,25.7-29.9,38.3-45.1c16.3-19.7,29.3-41.4,37.3-66c2.9-8.9,6.8-17.6,10-26.4c0.8-2.3,1.2-4.8,1.9-7.9
			c-7.3-0.5-12.9,2.6-18.7,5.1c-12.7,5.4-23.2,14.4-34.8,21.6c-9.5,5.9-19.7,9-31.1,7.7c-5.2-0.6-10.6-0.1-15.8,0.7
			c-8,1.1-15.8,0-22.7-3.8c-17.5-9.6-34.2-20.5-46.6-37c-3.5-4.7-8.6-8.1-12.8-12.2C-1,668.3-3.1,655.3,4.2,639.4
			c2.2-4.8,3.6-10,5.3-15.1c1.4-4.4,3.2-9,8.5-8.6c4.7,0.4,10.3,1.2,11.9,7.3c1.7,6.6,5.9,9.1,12.3,10.7c9.6,2.3,19,5.9,28.3,9.4
			c5.9,2.1,11.4,2.1,17.2,0c9.4-3.3,18.4-6.9,26.8-12.8c6-4.2,13.5-6.3,20.6-8.4c11.3-3.4,23-5.4,34.2-9.1
			c13.8-4.5,27.3-10.3,41-15.3c3.4-1.3,5.2-3.3,5.2-6.8c0.2-19.5,4.8-38.6,3.9-58.3c-0.8-18.5-4.1-36.2-8.2-54
			c-4.5-19.1-1.1-36.3,13-50.5c0.7-0.7,1.2-1.7,2-2c11.4-4.1,19-14,27.8-19.3c6.5,2.2,11.8,4.3,17.3,5.7c7,1.9,13.1,4.8,18.7,9.8
			c9,8.1,16.5,17.9,27.4,23.8c5.7,3.1,7.7,9.1,7.4,15.3c-0.4,6.9,1.7,12,6.7,16.7c5.2,4.9,5.6,9.9,1.1,15.9
			c-4.7,6.3-6.6,13.4-8.4,20.8c-2.7,11.3-5.6,22.6-8.3,33.9c-0.7,3-1,6-1.7,10.3c13.2-4.7,26.1-5,38-11c15.5-7.8,31-15.9,48.3-19.6
			c11.7-2.5,22.7-2.4,33.2,4c10.4,6.3,21.2,11.9,31.2,18.8c9.9,6.8,10.6,9.8,6.6,21.6c-1.4,4.2-0.8,7.5,2,10.3
			c4.9,4.8,10,9.4,15.2,13.8c4.8,4,4.8,12.5-0.4,15.9c-7,4.6-14.2,9-21.2,13.7c-7.7,5.2-16.1,8.2-25.1,9.6
			c-8.6,1.3-17.3,2.2-25.9,3.5c-6.4,1-12.8,2.3-19.2,3.5c-2.4,0.4-4.9,1.4-7.3,1.3c-20.8-0.5-40.7,4.1-60.1,11.1
			c-1.2,0.4-2.4,0.5-3.6,0.8c-11.4,2.6-22.8,5.2-34.4,7.9c-0.1,9.2-0.2,17.6-0.2,25.5c15.8,1.3,31.5,2.5,47.1,4
			c2.9,0.3,5.9,1.9,8.4,3.6c8.6,5.6,17.6,8.5,28.2,6.9c10-1.5,19.6,1.9,28.9,5.4c11,4.1,21.6,9.7,32.7,13.6
			c10.2,3.6,17.6,10.5,24.5,18.2c10.3,11.4,20.3,22.9,30.7,34.2c6.5,7,9,14.7,6.4,24.2c-2.9,10.6-10.1,16.4-20.9,15.8
			c-3.4-0.2-6.3,0.2-8,3.4c-6.4,11.7-17.9,12.6-29,13.7c-14.2,1.4-28.5,2-42.8,2.9c-1.9,0.1-3.7,0.2-5.6,0.3
			c-9.3,0-10.4-0.9-12.8-9.9C378.9,825,378.5,824.2,377.5,821.9z M285.4,667.4c-12.8,3.8-25.3,7.3-37.7,11.1
			c-10.1,3.1-20.2,6.3-30.2,9.5c-4.1,1.3-8.1,3.1-12.2,4.6c-3.5,1.3-5.3,4-6.4,7.5c-2.5,8.1-5,16.2-7.9,24.2
			c-7.9,21.6-16.9,42.9-30.5,61.5c-19.6,26.9-41.5,51.9-64.8,75.5c-3.2,3.2-6.7,6.7-12.4,5.7c-0.3-2.9-0.5-5.6-0.7-8.3
			c-10.5-4-12.2-7.6-8.8-18.5c0.8-2.5,1.4-5.1,2.6-9.2c-3.1,1.3-4.7,1.6-5.7,2.5c-8.6,8.5-17.7,16.7-25.4,26
			c-5.1,6.1-10.6,13.8-11.2,21.2c-0.7,8-2.2,16-2.7,24.1c-0.7,10.6,4.4,22.2,13.9,26.2c9.6,4.1,19.7,7.4,29.8,10.2
			c12.1,3.3,22.4-2.4,32.6-8c4.3-2.4,8.7-5,13.4-6.2c19.2-5,35.3-15.1,49.6-28.6c4.5-4.3,8.9-9.1,14.1-12.3
			c14.6-8.9,24.7-21.9,33.6-36c6.7-10.6,12-22.1,18.9-32.5c5.9-8.8,8.3-18.8,12.1-28.4c7.1-17.8,14.7-35.4,21.3-53.3
			c5.5-15,9.9-30.5,15-45.7C288.2,682.3,287.3,674.7,285.4,667.4z M486.3,606.2c-6.2-6-11.7-11.8-17.7-17.1
			c-5.4-4.8-5.8-9.4-2.5-15.8c3.6-6.9,2.6-8.2-3.1-13.8c-11-10.7-24.3-17.3-38.2-22.9c-5.1-2-11-3.6-16.2-2.9
			c-9.2,1.2-18.4,3.4-27,6.8c-13,5.1-25.6,11.4-38.1,17.7c-6.2,3.1-12.1,5.7-19.3,5.6c-8.9-0.1-12.2,3.6-14.4,12.7
			c-2.3,9.4-4.8,18.9-7.3,28.2c-4.1,14.8-10.2,29.1-10.7,44.8c-0.1,2.4-0.1,4.7-0.1,8.1c6.4-1.4,11.6-2.5,16.7-3.7
			c13.5-3.4,26.9-7.6,40.6-10.2c20.7-3.8,41.6-6.5,62.4-9.6c0.6-0.1,1.2,0,1.9-0.1c10.2-1.3,20.4-2.3,30.5-4.1
			C460.2,626.8,473.7,617.7,486.3,606.2z M17.2,623.5c-3,6.8-5.7,13.1-8.5,19.4c-4.5,10-2.8,19.1,4,27.2c4,4.7,9,8.6,13.2,13.1
			c4,4.3,7.7,9,11.4,13.6c7.9,9.7,18.9,15.1,28.7,22.3c10.6,7.8,22.4,10.3,35.3,7.4c2.7-0.6,5.6-0.6,8.3-0.3
			c16.4,1.7,29.4-5.7,41.7-15.4c3.2-2.5,6.5-5,10.1-6.7c9.5-4.5,19.2-8.9,29-12.7c4.2-1.6,6.7-3.7,7.8-8.2
			c1.7-7.7,4.2-15.2,5.9-22.8c3.3-14.1,6.4-28.2,9.2-42.4c0.9-4.5,0.7-9.2,1-14.3c-12.6,2.3-23.9,5.5-34.4,11.1
			c-10.3,5.5-21.2,8.6-32.7,10.4c-12,1.9-23.4,6-34.1,11.8c-7.6,4.1-15.5,7.9-23.5,11.3c-9.7,4.1-19.2,2.7-28.9-1.2
			c-8.9-3.6-18.2-5.9-27.5-8.1c-3.4-0.8-6-2-6.8-5.4C25.6,628.2,21.6,625.9,17.2,623.5z M330.1,487.7c-0.9-1.6-1.3-3.4-2.4-4.2
			c-7-4.9-8.9-11.4-7.7-19.7c0.8-5.3-1.7-9.6-6.3-12.8c-8.7-6.1-16.6-12.9-23.8-20.9c-3.8-4.3-9-7.9-14.2-10.2
			c-6.7-2.9-14.1-4.5-21.3-6c-2-0.4-5.3,0.7-6.6,2.2c-4.3,5.3-9.6,8.7-15.8,11.2c-1.9,0.8-3.9,2.3-5,4.1
			c-9.2,13.7-14.9,27.8-9.6,45.2c5.1,16.8,9,34.1,6.4,52c-0.2,1.5,0.1,3.1,0.2,4.7c0.3,5.3,1.1,10.6,0.9,15.9
			c-0.6,12.2-1.8,24.5-2.7,36.7c-0.1,2,0.3,4.1,0.7,7.5c6.6-2.3,12.5-4,18.2-6.3c9.8-4,19.3-8.7,29.2-12.3
			c10.2-3.7,20.7-6.6,31.1-9.8c3.2-1,6.8-1.2,7.8-5.5c3.1-13.5,7.2-26.8,9.5-40.4C320.4,507.8,322.7,496.9,330.1,487.7z
			 M353.4,817.8c3.1,0.6,5.5,1.7,7.6,1.4c4.9-0.7,9.7-1.9,14.4-3.2c5.4-1.5,7.7-0.6,9.4,4.4c2.8,8.4,2.8,8.5,11.4,8
			c16.4-1.1,32.8-2.1,49.2-3.6c4.6-0.4,9.1-2,13.4-3.7c2.1-0.8,4.1-2.9,5.1-5c3.1-6.8,7.9-9,15.1-7.9c3,0.4,7-0.5,9.4-2.3
			c6.4-4.8,7.5-14.7,2.6-21.1c-4-5.2-8.7-9.8-13-14.8c-6.3-7.3-12.9-14.5-18.9-22c-6.3-8-13.2-14.9-22.9-18.6
			c-10.8-4-21.4-8.4-32.1-12.6c-4.3-1.7-8.6-3.8-13.1-4.6c-6.7-1.1-13.5-1.8-20.3-1.7c-8.7,0.2-16.4-1.6-23.5-7
			c-3.4-2.6-7.7-4.7-11.8-5.2c-11.4-1.4-22.8-1.9-34.3-2.5c-3.3-0.2-8,0.1-8.5,4.1c-0.4,3.7,1.5,7.7,2.7,11.4c0.3,1,1.9,1.6,2.9,2.3
			c10.5,8.2,19,17.9,22.8,31.3c1,3.5,3.2,7.1,5.8,9.4c12.4,11,25.4,21.2,40.3,28.6c6.4,3.2,12.6,6.8,18.8,10.4
			c3.2,1.8,5.3,4.7,4.1,8.6c-1.3,4.5-4.5,6.6-9.2,6.4c-2.2-0.1-4.4-0.7-6.5-0.5C366.7,808.3,359.2,809.5,353.4,817.8z M307.7,570.3
			c-16.3,3.3-30.5,6.4-43.9,12.3c-11.7,5.1-23.2,10.7-35.1,15.2c-5.6,2.1-7.2,5.4-8,11c-1.7,12.1-4.2,24.1-6.9,36.1
			c-2.9,13.1-6.5,26-9.9,39.4c2.1,0,3,0.2,3.8,0c20.6-6,41.1-11.9,61.6-18.1c4.1-1.2,7.9-3.5,12-5.1c3.4-1.3,4.1-3.8,4.7-7.2
			c2.9-14.8,4.7-29.7,9.8-44.1C300.3,597.6,303.5,584.7,307.7,570.3z"/>
		<path id="XMLID_313_" fill="#231815" d="M285.4,667.4c1.9,7.4,2.8,15,0.2,22.7c-5,15.2-9.4,30.7-15,45.7
			c-6.6,18-14.2,35.6-21.3,53.3c-3.8,9.6-6.3,19.6-12.1,28.4c-6.9,10.4-12.2,21.9-18.9,32.5c-8.9,14.1-19,27.2-33.6,36
			c-5.2,3.2-9.6,8-14.1,12.3c-14.3,13.5-30.5,23.6-49.6,28.6c-4.7,1.2-9.1,3.9-13.4,6.2c-10.2,5.6-20.5,11.3-32.6,8
			c-10.1-2.8-20.2-6-29.8-10.2c-9.5-4.1-14.6-15.6-13.9-26.2c0.5-8.1,2-16.1,2.7-24.1c0.6-7.4,6.2-15.1,11.2-21.2
			c7.7-9.3,16.8-17.5,25.4-26c0.9-0.9,2.6-1.2,5.7-2.5c-1.2,4.2-1.8,6.7-2.6,9.2c-3.4,11-1.7,14.5,8.8,18.5c0.2,2.7,0.5,5.4,0.7,8.3
			c5.7,1,9.2-2.4,12.4-5.7c23.3-23.6,45.2-48.6,64.8-75.5c13.6-18.6,22.6-39.8,30.5-61.5c2.9-8,5.4-16.1,7.9-24.2
			c1.1-3.6,2.9-6.2,6.4-7.5c4.1-1.5,8-3.2,12.2-4.6c10.1-3.3,20.1-6.5,30.2-9.5C260.2,674.7,272.6,671.1,285.4,667.4z"/>
		<path id="XMLID_312_" fill="#231815" d="M486.3,606.2c-12.5,11.5-26,20.7-42.7,23.7c-10.1,1.8-20.3,2.8-30.5,4.1
			c-0.6,0.1-1.3,0-1.9,0.1c-20.8,3.1-41.7,5.8-62.4,9.6c-13.7,2.5-27,6.8-40.6,10.2c-5.1,1.3-10.2,2.3-16.7,3.7c0-3.3,0-5.7,0.1-8.1
			c0.5-15.7,6.6-30,10.7-44.8c2.6-9.4,5-18.8,7.3-28.2c2.2-9.1,5.5-12.8,14.4-12.7c7.3,0.1,13.1-2.4,19.3-5.6
			c12.5-6.3,25.1-12.6,38.1-17.7c8.6-3.4,17.8-5.6,27-6.8c5.2-0.7,11.2,0.9,16.2,2.9c13.9,5.6,27.2,12.2,38.2,22.9
			c5.7,5.6,6.7,6.9,3.1,13.8c-3.3,6.3-2.9,11,2.5,15.8C474.5,594.3,480.1,600.2,486.3,606.2z"/>
		<path id="XMLID_311_" fill="#231815" d="M17.2,623.5c4.4,2.5,8.4,4.7,9.5,10.1c0.7,3.4,3.3,4.6,6.8,5.4c9.3,2.3,18.7,4.6,27.5,8.1
			c9.7,3.9,19.2,5.3,28.9,1.2c8-3.4,15.8-7.2,23.5-11.3c10.8-5.8,22.1-10,34.1-11.8c11.5-1.8,22.3-4.9,32.7-10.4
			c10.5-5.6,21.7-8.8,34.4-11.1c-0.3,5.2-0.1,9.9-1,14.3c-2.8,14.2-6,28.3-9.2,42.4c-1.8,7.7-4.2,15.2-5.9,22.8
			c-1,4.5-3.5,6.6-7.8,8.2c-9.8,3.8-19.5,8.2-29,12.7c-3.6,1.7-6.9,4.2-10.1,6.7c-12.3,9.7-25.3,17.2-41.7,15.4
			c-2.7-0.3-5.7-0.3-8.3,0.3c-12.9,2.8-24.6,0.4-35.3-7.4c-9.8-7.1-20.8-12.6-28.7-22.3c-3.7-4.6-7.4-9.2-11.4-13.6
			c-4.2-4.5-9.2-8.4-13.2-13.1c-6.8-8.1-8.4-17.2-4-27.2C11.6,636.6,14.2,630.3,17.2,623.5z"/>
		<path id="XMLID_310_" fill="#231815" d="M330.1,487.7c-7.4,9.2-9.7,20-11.6,31.4c-2.3,13.6-6.3,26.9-9.5,40.4
			c-1,4.4-4.6,4.5-7.8,5.5c-10.4,3.2-20.9,6.1-31.1,9.8c-9.9,3.6-19.4,8.4-29.2,12.3c-5.7,2.3-11.5,4-18.2,6.3
			c-0.3-3.5-0.8-5.5-0.7-7.5c0.8-12.2,2-24.5,2.7-36.7c0.3-5.3-0.5-10.6-0.9-15.9c-0.1-1.6-0.4-3.2-0.2-4.7
			c2.5-17.9-1.3-35.2-6.4-52c-5.3-17.3,0.4-31.5,9.6-45.2c1.2-1.7,3.1-3.3,5-4.1c6.2-2.5,11.5-5.9,15.8-11.2
			c1.3-1.6,4.6-2.7,6.6-2.2c7.2,1.5,14.6,3.1,21.3,6c5.3,2.3,10.4,5.9,14.2,10.2c7.1,8,15.1,14.8,23.8,20.9
			c4.6,3.2,7.1,7.4,6.3,12.8c-1.2,8.3,0.7,14.8,7.7,19.7C328.8,484.3,329.2,486.1,330.1,487.7z"/>
		<path id="XMLID_309_" fill="#231815" d="M353.4,817.8c5.8-8.3,13.3-9.5,21.1-10c2.1-0.2,4.3,0.4,6.5,0.5c4.6,0.3,7.9-1.9,9.2-6.4
			c1.1-3.9-1-6.8-4.1-8.6c-6.2-3.6-12.4-7.2-18.8-10.4c-14.9-7.4-27.9-17.6-40.3-28.6c-2.7-2.4-4.9-6-5.8-9.4
			c-3.8-13.4-12.3-23-22.8-31.3c-1-0.8-2.5-1.3-2.9-2.3c-1.2-3.7-3.2-7.8-2.7-11.4c0.5-4,5.2-4.3,8.5-4.1
			c11.4,0.5,22.9,1.1,34.3,2.5c4.1,0.5,8.4,2.6,11.8,5.2c7.1,5.4,14.8,7.2,23.5,7c6.8-0.1,13.6,0.6,20.3,1.7
			c4.5,0.8,8.8,2.9,13.1,4.6c10.7,4.2,21.3,8.6,32.1,12.6c9.7,3.7,16.6,10.6,22.9,18.6c6,7.6,12.5,14.7,18.9,22c4.3,5,9,9.6,13,14.8
			c4.9,6.4,3.8,16.3-2.6,21.1c-2.4,1.8-6.4,2.7-9.4,2.3c-7.2-1-12,1.2-15.1,7.9c-0.9,2.1-3,4.2-5.1,5c-4.3,1.7-8.8,3.3-13.4,3.7
			c-16.4,1.5-32.8,2.5-49.2,3.6c-8.6,0.5-8.6,0.4-11.4-8c-1.7-5-4-5.9-9.4-4.4c-4.7,1.3-9.6,2.5-14.4,3.2
			C358.9,819.5,356.5,818.5,353.4,817.8z"/>
		<path id="XMLID_308_" fill="#231815" d="M307.7,570.3c-4.2,14.4-7.3,27.3-11.7,39.7c-5.1,14.3-6.8,29.3-9.8,44.1
			c-0.7,3.4-1.3,5.9-4.7,7.2c-4,1.6-7.9,3.8-12,5.1c-20.5,6.2-41.1,12.1-61.6,18.1c-0.8,0.2-1.7,0-3.8,0c3.4-13.5,6.9-26.4,9.9-39.4
			c2.7-11.9,5.2-24,6.9-36.1c0.8-5.6,2.3-8.9,8-11c11.9-4.5,23.4-10.1,35.1-15.2C277.2,576.7,291.3,573.5,307.7,570.3z"/>
	</g>
	<g id="XMLID_272_">
		<path id="XMLID_304_" fill="#231815" d="M860.9,691.1c11.4,2.5,17.2,10.7,23.1,18.7c5.4,7.4,10.8,14.8,16.5,22
			c4.9,6.2,4,13,1,18.8c-3.2,6.3-3.6,12.4-3.8,19.1c-0.2,6.3-0.9,12.7-2.2,18.9c-2.6,12-2.1,24.1-2.1,36.2c0,22.8,4.5,45.2,6.9,67.8
			c1.2,11.3,2.6,22.6,3.2,34c0.4,7.9-0.6,15.7-0.7,23.6c-0.1,5.3-0.2,10.5,0.2,15.8c1.3,15.1-10.3,34.4-25.2,40.9
			c-2.7-2.2-5.8-4.4-8.4-7.1c-3.2-3.4-7-5.3-11.7-5.3c-3.8,0-6.3-1.4-8-4.7c-6.1-11.9-16.3-20.4-28.1-26.7
			c-11.8-6.2-20.8-15.1-30.3-23.7c-1.6-1.4-2.1-4.3-2.3-6.5c-0.4-3.5-1.8-6-5.2-6.8c-5.8,7.8-11.5,15.5-17.3,23.1
			c-0.7,0.9-2.4,1.1-4,1.8c-5.7-2.8-9.8-6.8-11.5-12.9c-0.4-1.5-0.8-3.5-1.9-4.4c-6.7-5.2-7.7-13.4-11.4-20.1
			c-1.9-3.5-2.7-8.2-2.3-12.1c1.2-10.8,3.3-21.4,5-32.1c0.4-2.2,0.6-4.4,0.9-7.3c-7.8,1.6-9.6,6.9-11.2,12.1
			c-1.2,3.7-0.8,7.9-1.9,11.7c-2.6,8.8-5,17.8-8.6,26.2c-1.7,3.8-5.7,7-9.3,9.7c-3.4,2.5-6.4,5.1-7.6,9c-2,6.3-6.6,10.8-11.7,15.6
			c-7.2-4.1-11.7-9.2-10.9-17.7c0.3-3.6-0.8-7.2-1-10.9c-0.2-3.7-0.5-7.4-0.2-11c0.8-7.9,1.9-15.7,3-23.6c0.7-5.2-0.4-8.8-6.1-11.5
			c-9.1-4.2-10.1-11.4-3.2-18.6c5.7-6,11.6-12,17.5-17.9c4.3-4.3,6-9.1,4.1-16.3c-4.4,4.9-8.2,9-11.8,13.2
			c-5.5,6.3-11,12.4-16.2,18.9c-3.3,4.2-6.2,8.7-8.8,13.2c-4.8,8.3-9.4,16.6-13.8,25.1c-2.7,5.1-5.2,10.4-7.1,15.9
			c-4.1,12.3-7.8,24.7-11.6,37.1c-0.6,2-1.7,4.1-1.6,6.1c0.4,7.3-3.8,12.1-9.4,15.7c-8.1,5.3-16.8,9.9-26.1,15.3
			c-2.8-3.1-6.5-5.9-8.3-9.5c-4.4-8.9-9-17.9-11.5-27.3c-1.5-5.5,0.2-12,1.8-17.8c3.4-12.5,8-24.6,11.6-37.1
			c2.1-7.1,2.6-14.6,5-21.5c5.4-15.7,11.2-31.4,17.4-46.8c5.2-13,11.4-25.6,16.9-38.6c2.9-6.8,5.1-13.9,7.4-20.9
			c2.9-8.5,5.3-17.2,8.6-25.5c1.3-3.2,4-6.2,6.7-8.6c9.4-8.5,19-16.7,28.6-25c5.3-4.6,10.9-8.9,16.3-13.3c1.8-1.5,3.6-3.1,5.9-5.2
			c-5.3-8-12.8-13.5-20.2-19.8c2.6-4.2,4.9-8.4,7.7-12.2c3.2-4.3,8.4-5.2,13.4-5.3c6.8-0.1,12.3-2.8,17.6-6.3
			c8.4-5.6,15.8-12.3,22.3-19.8c13.8-15.8,28.9-30.3,45.5-43.5c1.7-1.3,2.9-3.1,4.3-4.7c4.3-5,8.7-10.1,13-15.2
			c0.8-1,1.5-2.1,3.4-4.9c-3.6,1-5.5,1.5-7.4,2c-3.4,0.9-6.8,2.4-10.3,2.5c-4.3,0.1-5.6-2.3-4.6-6.3c1.3-5.7,5.3-10.3,10.4-11.5
			c8.3-1.8,11.9-8.2,17.3-12.8c6.8-5.7,13.5-11.5,20.5-17.1c3.1-2.4,6.6-3.7,10.8-1.7c5.5,2.6,9.6-1.2,13.9-3.2
			c3.2-1.4,5.7-2.8,9.9-1.7c4.9,1.2,8,3,9.8,7.4c0.6,1.4,1.6,2.9,2.8,3.9c8.8,7.7,11.7,17.9,13.3,28.5c1,6.3,1.2,12.6,2.2,18.9
			c0.7,4.7-1,8.1-4.7,11.1c-7.3,5.9-15.5,9.1-25.2,8c-7.8-0.9-15.5-0.9-23.1,1.2c-1.9,0.5-3.8,0.9-5.7,1
			c-27,1.3-46.7,15.6-65.1,32.2c-3.2,2.9-5.4,6.7-7.9,10.1c-0.6,0.8-0.7,1.9-1.2,3.3c8,3.2,15.2,2.4,22.6-0.6
			c7.6-3.1,15.3-5.9,23-8.9c4-1.5,7.3-0.7,10.8,1.9c6.1,4.5,9.7,10.5,11.5,17.2c0.8,2.8-0.5,7.3-2.6,9.3
			c-5.1,4.7-10.4,9.2-17.7,11.3c-6.2,1.9-12.1,5.1-17.9,7.9c-1.3,0.6-2.2,2.1-4.7,4.7c5.1-0.9,8.3-1.4,11.5-1.9
			c6.8-1.2,12.6-0.1,17.2,5.5c3.4,4.1,7.7,6.6,13.3,7.6c3.7,0.7,7.2,2.8,10.5,4.6c6,3.2,7.4,3.1,12.1-1.9c0.9-1,1.8-2,2.5-3.1
			c11.1-15.7,22.3-31.3,33-47.2c10.6-15.7,20.3-31.9,30.8-47.6c6.2-9.3,13.2-18.1,19.9-27c5.4-7.3,10.8-14.5,16.4-21.6
			c4-5,8.6-9.6,12.6-14.6c3-3.7,5.2-8,8.1-11.7c2.6-3.3,5.2-6.9,8.6-9.3c2-1.5,6-1.9,8.4-1.1c6.3,2.1,12.4,4.9,18.3,7.9
			c6.3,3.1,10.3,8.2,11.2,15c1,8.3,4,15.8,8.7,23c4.9,7.6,6.6,15.7,2.1,24.1c-2.4,4.4-4.4,9.1-6.3,13.7c-1.4,3.4-3,6.8-3.6,10.4
			c-3.4,20.1-6.7,40.1-9.7,60.2c-0.7,4.4,0.1,9,0,13.4c-0.1,2.1,0.1,4.7-1.1,6.1c-6,6.8-7.1,15.2-8.8,23.5
			c-2.7,12.7-5.8,25.2-8.2,37.9c-2.6,14-4.7,28.1-7,42.1c-0.5,2.9-1.1,5.7-1.7,8.6c-1.9,9.7-1.2,19.4,0.5,29.2
			c1,5.4,1.3,11.2,0.3,16.4c-1.4,7.2,3.3,11.5,6.9,16.3c0.8,1,3.8,1.3,5.3,0.8c14.9-4.6,30.6-4.9,45.8-7.9
			c24.7-4.9,49.3-10.4,73.9-15.7c2.1-0.4,4-1.3,7-2.4c-2.1-2.8-3.7-4.9-5.2-7c-5-6.7-11.1-12.9-14.9-20.2
			c-4.8-9.3-11.6-16.9-18.7-24.4c-11.2-11.9-22.4-23.8-33.9-35.4c-4.4-4.4-9.3-8.6-14.5-12c-6.4-4.1-11.6-9.1-15.8-15.2
			c-2.7-4-6.1-7.6-9-11.6c-3.8-5.3-3.5-7,1.6-12.9c6.8,2.8,13,6.8,18.3,11.7c14.8,13.8,30,27.1,46.5,39c6.9,5,13.4,10.4,19.8,15.9
			c18.3,15.7,39.9,27.3,58.9,42.2c8,6.3,16.2,12.2,23.9,18.8c4.7,4,9.1,8.6,12.9,13.5c3.8,4.8,4.9,10.6,4.1,16.6
			c-0.5,3.7-0.9,7.3-1.4,11.1c8.5,7.5,7.3,17-3,21.8c-3.4,1.6-7.2,2.8-10.9,3.6c-13.8,2.9-27.6,5.5-41.5,8.2c-3,0.6-6,1-9,1.8
			c-9.9,2.6-19.6,5.5-29.6,7.8c-4.2,1-8.7,0.7-13.1,0.8c-6.1,0.2-12.2-0.1-18.2,0.5c-13.8,1.4-27.5,3.3-41.3,4.8
			c-16.6,1.7-32.8,5.2-48.5,10.6c-2.6,0.9-4.8,2.6-7.3,3.7c-3.2,1.5-6.4,3.2-9.9,4.1c-4.4,1.1-8.5,0.4-12.2-3
			c-7.4-6.8-15.5-13.1-23-19.8c-2.3-2.1-4.4-5-5.3-7.8c-5.2-17.6-9.9-35.3-15.1-52.9c-1.6-5.5-1.5-10.6,0.8-15.5
			c6.3-13.7,9.2-28.2,10.9-42.9c2-17.4,5.8-34.4,10-51.3c3.2-13,3.6-26.1,2.7-39.4c-1.2-17.5-0.9-34.9,3.5-52
			c0.8-3.1,1.5-6.2,1.6-9.4c0.1-10.6,4.1-19.9,9.2-29.1c4.8-8.5,8.7-17.6,12.3-26.6c1.6-3.9,3.6-8.7-2.8-12.7
			c-3.6,4.2-7.4,8.2-10.7,12.6c-13.3,17.7-25.8,35.9-37.6,54.6c-8.6,13.7-19,26.4-28.6,39.6c-0.6,0.9-1.4,1.6-2,2.5
			C870.2,675.3,865.8,682.8,860.9,691.1z M793,923.3c-0.6,6.9,2.6,12.4,7.9,16.7c6.8,5.5,13.5,11.4,21.1,15.7
			c13.3,7.4,24.6,16.4,32.8,29c1.1,1.7,3.6,3.5,5.7,3.7c5.7,0.6,9.9,3.2,13.9,6.7c2.1,1.8,4.8,2.9,7.2,4.3
			c12-10.2,18.5-21.3,15.2-36.3c-0.9-4.1-0.4-8.4-0.2-12.6c0.2-4.5,1.1-8.9,1-13.3c-0.3-9.8-0.8-19.6-1.5-29.3
			c-0.6-8.4-0.6-17-2.6-25.2c-4.6-19.3-5.6-38.8-6.1-58.3c-0.3-11-0.2-22.1,2.3-33.1c1.9-8.4,1.8-17.2,1.9-25.9
			c0-4.3,0.1-8.2,2.8-12c5.2-7.3,4.4-13.1-1.6-20.1c-3.5-4.1-6.8-8.4-10-12.8c-2.1-2.8-3.4-6.2-5.6-8.9c-5.3-6.2-9.4-13.8-19.8-13.6
			c-2.2,0-4.5-2.4-6-3.3c5.2-8.5,9.8-16.2,14.5-23.9c0.4-0.7,1-1.3,1.5-1.9c8-10.3,16.5-20.4,23.9-31.1c9.7-14,18.4-28.7,28-42.8
			c8.1-11.9,16.7-23.5,25.7-34.8c2.9-3.7,6.1-8.1,12.1-9.2c3.7,4.4,8.5,8.6,6.4,14.8c-3.3,10-6.4,20.4-11.5,29.5
			c-5.6,9.9-10.6,19.6-11.2,31c-0.1,1.8-0.5,3.7-0.9,5.5c-4.3,17.9-5.4,35.9-4.1,54.3c0.8,12.2,1.8,24.8-2.1,37
			c-6.7,20.7-8.9,42.3-12.3,63.6c-1.5,9.6-3.9,19.2-7.3,28.3c-3.2,8.5-5.1,16.4-1.5,25.2c2.2,5.6,2.9,11.8,4.5,17.7
			c1.5,5.3,3.6,10.5,4.9,15.9c2.1,9.2,5.2,17.8,13.2,24.2c4.3,3.4,8.3,7.1,12.5,10.7c8.6,7.5,12,8,22.3,2.9c1.2-0.6,2.3-1.5,3.6-1.9
			c9.4-3.1,18.6-7,28.3-8.9c11-2.3,22.5-2.6,33.8-4.1c12.4-1.6,24.7-3.6,37-5.4c3-0.4,6.3-1.2,9-0.4c10.2,2.7,19.9,0.7,29.5-2
			c5.3-1.4,10.5-3.3,15.8-4.7c4.5-1.2,9.1-2.2,13.8-2.9c15.3-2.3,30.7-4.6,45.4-9.4c3.7-1.2,6.3-3.3,7.3-6.9c1.2-4.3-3-5.1-5.3-7
			c-0.2-0.2-0.3-0.5-0.8-1.4c0.5-3,1.1-6.7,1.8-10.3c1.1-5.4,1-10.8-2.3-15.3c-3.6-5-7.8-9.8-12.5-13.9
			c-7.9-6.8-16.4-12.8-24.7-19.2c-5.7-4.3-11.3-8.7-17.1-12.8c-10.7-7.7-21.7-15-32.2-22.9c-11.4-8.6-22.3-17.7-33.4-26.7
			c-9.7-8-19.2-16.2-28.9-24.2c-6.3-5.2-12.7-10.4-19.1-15.5c-1-0.8-2.5-1.1-3.8-1.6c4.6,8.6,9.1,16.9,17.3,22.6
			c4.9,3.4,10.1,6.7,14.3,10.8c14.9,14.7,29.5,29.7,44.2,44.7c3.2,3.3,6.5,6.7,9.2,10.4c7.8,10.7,15.2,21.6,23,32.4
			c5.6,7.8,4.6,11.5-4.7,15c-0.8,0.3-1.6,0.6-2.4,0.7c-21.4,4.4-42.7,8.9-64.2,13.2c-10,2-20.1,3.6-30.2,5.4c-6,1-12,1.9-17.9,3.1
			c-4.3,0.9-8.6,2.1-12.8,3.3c-3.8,1.1-6.4,0.3-8.1-3.4c-1.3-2.6-2.8-5.3-4.7-7.5c-2.9-3.5-3.7-7.3-2.4-11.2
			c1.8-5.8,1.1-11.5,0.4-17.3c-0.8-7.1-2.3-14.3-1.5-21.3c1.8-15.5,4.7-30.8,7.5-46.1c2-10.6,5-21.1,7.1-31.7
			c1.8-9.1,2.9-18.3,4.8-27.3c1-4.6,2.4-9.3,4.8-13.3c2.6-4.3,3.6-8.6,3.6-13.5c0-6.1,0.3-12.2,1.1-18.2c2-13.6,4.3-27.1,6.7-40.6
			c1.3-7.3,2.7-14.6,4.9-21.6c1.6-5.2,4.4-10.2,7.1-15c3.5-6.1,2.4-12.3-1-17.4c-5-7.4-7.4-15.3-8.7-23.8c-1-6.5-4.3-12-11.1-14.9
			c-3.3-1.4-6.7-2.8-9.8-4.4c-9.3-4.9-13.8-2.4-16.1,7.1c-0.5,1.9-1.8,3.7-3.2,5.3c-8.7,9.8-17.6,19.4-26.1,29.3
			c-5.4,6.3-10.2,13-15.1,19.7c-7.1,9.7-14.4,19.3-21,29.3c-7.3,11.1-13.5,22.9-21,33.8c-13.4,19.6-27.4,38.8-41.2,58.1
			c-4.4,6.3-8.3,7-15.2,2.7c-4.7-2.9-9.4-5.4-15.1-6.4c-2.8-0.5-6-2.2-7.7-4.3c-6.6-7.9-14.4-10.1-24.4-7.4
			c-5.1,1.4-10.7,2.5-17.5,0.6c7.3-8.1,14.4-14.9,24.7-18.5c6.5-2.2,12.8-4.9,18.8-8.1c7.5-4,8.8-8.3,5.7-15
			c-3.6-7.7-12-12.9-18.5-10.7c-6.7,2.3-13.5,4.8-19.5,8.4c-5.4,3.2-10.9,3-16.7,2.9c-1.6,0-3.5-1.2-4.8-0.7
			c-5,1.8-8.3-1.1-12.4-3.3c4-5.2,7.9-10.1,11.8-15c1.5-1.9,2.9-3.9,4.7-5.5c12.4-11.5,26.9-19.8,42.4-27.1c8.8-4.1,17.4-5.8,26.9-6
			c10.2-0.2,20.4-1,30.7-1.2c6.3-0.2,12-1.4,17.2-4.8c4-2.5,5.4-5.7,4.7-10.1c-0.8-5.2-1.6-10.5-2.2-15.7
			c-1.1-10.5-3.8-20.3-12.2-28.1c-1.5-1.4-2.2-3.6-3.2-5.5c-1.6-3-4-4.5-7.5-3.7c-4.5,1.1-8.9,2.6-13.4,3.8
			c-2.6,0.7-5.8,2.2-7.8,1.3c-5.5-2.3-9.3-0.1-12.9,2.9c-6.7,5.5-13.1,11.3-19.4,17.2c-4.5,4.2-7.7,9.5-14.9,10.5
			c-2.1,0.3-3.6,3.8-5.9,6.5c9.2,2.2,16.3-6.7,24.7-0.5c-4.2,5.7-8.1,11.4-12.4,16.8c-2.5,3.1-5.2,6.1-8.2,8.8
			c-7.8,7-16.2,13.5-23.7,20.8c-12.1,11.9-23.5,24.4-35.5,36.4c-8.7,8.7-19.2,15.5-31.7,17.5c-7.6,1.3-12.1,4.1-14.5,11.1
			c4.6,4,9.3,7.7,13.6,11.8c6,5.7,5.9,9-0.2,14.6c-4.6,4.2-9.4,8.1-14.1,12.2c-9.3,8.2-18.5,16.5-27.9,24.7
			c-5.8,5-10.9,10.3-13.2,17.7c-5.5,18.4-12.5,36.3-20.8,53.8c-6.8,14.3-12,29.4-17.8,44.1c-1.4,3.4-2.4,7-4,10.4
			c-4.5,9.1-7,18.7-8.9,28.7c-1.8,9.3-4.8,18.4-7.5,27.5c-1.9,6.3-4.1,12.5-6.3,18.7c-3.2,9-2.2,17.6,2,26.1c1.8,3.6,3,7.5,4.8,11
			c2,4,3.7,8.3,8.1,10.4c7.2-4.6,14.3-8.7,20.8-13.4c2.6-1.9,5.6-5.3,5.7-8.1c0-5,2-9.1,3.5-13.6c3.7-11.3,7.1-22.7,10.7-34
			c1.3-4,2.2-8.3,4.2-12c5.4-10,10.9-20,17-29.7c11.5-18.4,26.9-33.9,41.1-50.3c2.6-3,6.2-5.3,11.4-3.6c-1.4,7.5-2.6,14.9-4.2,22.3
			c-0.3,1.3-1.9,2.5-2.9,3.6c-6.7,7.3-13.6,14.5-20.2,21.9c-4.4,4.9-3.8,9.1,2.3,11.2c7.4,2.6,8.2,7.5,7.2,13.3
			c-3,16.2-2.9,32.5-1,48.9c0.5,4.5,1.9,8.1,7.8,10.1c1.9-3.3,4.4-6.3,5.4-9.6c1.7-6,5.7-9.9,10.6-13.6c3.3-2.6,6.3-6,8.1-9.6
			c3.7-7.4,5.9-15.3,6.2-23.6c0.2-3.9,0.9-7.9,1.8-11.7c2.3-9.4,10.5-15,21.5-14.7c0,1.5,0.2,3.1,0,4.5c-1.6,11.5-3.1,23-5.1,34.5
			c-1.1,6-0.8,11.6,2,17c4.7,9.2,9.6,18.3,14.7,27.3c1.2,2.1,3.5,3.7,6.2,6.4c2.6-3.8,4.6-6.5,6.3-9.4c2.6-4.3,4.5-9.1,7.5-13.1
			c3.9-5.1,7.1-5,12.3-0.7c0.6,0.5,1.3,1,2,1.5L793,923.3z"/>
		<path id="XMLID_300_" fill="#231815" d="M720.6,607.1c-5.2-5.9-10.4-11.9-16.2-18.5c-2.9,4.1-1.1,7.4-0.6,10.5
			c0.8,4.9,2.3,9.8,3.2,14.7c2.1,11.1-2.5,17.4-13.6,20.7c-4.3,1.3-8.7,3.5-12.1,6.3c-6.8,5.5-14,6.9-22.3,3.5
			c-7.9-3.2-15.9-6.5-23.9-9.4c-3.4-1.2-5.1-3.3-5.2-6.4c-0.2-7.9-3.7-14.8-6.9-21.9c-4.9-10.8-3.3-21.2,1.2-32.1
			c4.7-11.5,13.6-14.7,25-16c4.3-0.5,8.7-1.8,12.5-3.6c7.1-3.4,13.8-7.5,20.6-11.2c5.9,4,6.8,5.7,5.3,11.1c-0.3,1-0.7,2-1.1,3
			c-4.4,10.8-2,15.2,10.6,19.2c0.4-0.6,1.1-1.2,1.2-1.9c2.8-11.8,11.1-20.5,18.9-29.1c4.1-4.6,10.3-7.8,16.1-10.6
			c4.2-2.1,9.2-1.5,13.4,1.4c1.6,1.1,2.8,2.5,4.2,3.7c4.2-0.6,8.2-1.2,12.4-1.8c3.5,8.9,5.9,17.6,4.6,26.2
			c-1.9,12.5-9.8,21.8-22.5,26.1c-4.5,1.5-7.8,3.7-10.7,6.9C731,601.9,726.9,605.2,720.6,607.1z M681.1,551.4
			c-2.7,0.9-4.6,1.2-6.1,2.1c-11,6.7-22.7,11.7-35.9,13.4c-2.4,0.3-4.9,2.4-6.5,4.3c-8.2,9.5-8.1,20.4-3.8,31.4
			c2.8,7.2,6.3,14.1,7.1,21.9c0.3,3.3,2.3,5.1,5.5,6.3c7.5,2.8,14.7,6.4,22.4,8.7c5.9,1.8,11.7,1.7,16.8-3.4
			c3.5-3.4,8.3-6.3,13.1-7.7c8.6-2.6,9.4-2.8,8.6-11.3c-0.3-2.6-0.8-5.2-1.4-7.8c-1.2-6.2-3.1-12.4-3.7-18.7
			c-0.6-6.4-3.4-10.5-9.7-12.4c-3.8-1.2-6.1-3.5-7.3-7c-1.5-4.6-2.9-9.1-0.3-13.8C680.5,556,680.5,554.1,681.1,551.4z M760,544.4
			c-2.2,0.3-3.5,0.3-4.8,0.7c-1.3,0.3-2.6,1.4-3.8,1.3c-2-0.1-4.5-0.4-5.8-1.6c-6.3-5.5-8.8-5.7-15.7-1.7c-4.9,2.8-6.9,9-13.2,9.9
			c-5.1,7.5-11,14.6-12.2,23.8c-0.2,1.8,0.7,4.1,1.9,5.5c4.6,5.2,9.8,10,14.3,15.3c2.6,3,4.9,3.1,7.8,1.1c1.3-0.9,2.6-2,3.5-3.3
			c3.8-5,8.9-8.2,15-10.6c7.3-2.9,13.5-7.8,15-15.6C763.6,561.3,763.1,553.1,760,544.4z"/>
		<path id="XMLID_297_" fill="#231815" d="M798.1,489.1c-1-0.2-1.3-0.2-1.5-0.3c-9-4.5-16.6-0.5-24.1,3.4
			c-16.6,8.7-34.3,14.8-52.7,18.5c-12.7,2.6-25.8,3.4-38.7,4.9c-1.4,0.2-2.8,0.1-4.1-0.2c-5.1-1.1-6.5-5-3.1-8.9
			c0.9-1,2-1.8,3.1-2.6c23.1-16.6,46.1-33.3,69.3-49.9c5.8-4.2,9.5-9,8.6-16.7c-1.2-10.1,4-18.2,12.1-23.8
			c12.2-8.5,24.9-16.2,38.7-22.5c6.1-2.8,11.4-7.3,16.4-11.7c6.6-5.9,9.3-6.9,16.5-1.5c14.4,10.8,28.2,22.4,38.4,37.2
			c4.3,6.3,6.8,12.6,3.1,20c-1.2,2.5-1.9,5.8-1.2,8.4c1.6,6.2-1.8,9.5-6.4,12.4c-7.2,4.4-14.3,8.9-21.7,13
			c-9.1,5-18.1,10.1-27.6,14.2c-6.7,2.9-14.2,4.3-21.4,6.3C800.3,489.7,798.8,489.2,798.1,489.1z M679.5,508.4
			c0.3,0.7,0.6,1.4,0.8,2.1c2.9-0.2,5.9-0.4,8.8-0.7c4.7-0.5,9.3-1.5,14-1.8c15.7-0.9,30.7-4.6,45.1-9.9
			c12.3-4.6,24.2-10.3,36.4-15.3c2.6-1.1,6.3-2.3,8.6-1.4c6.5,2.7,12.4,0.5,18.5-0.5c9.5-1.5,17.7-5.8,25.9-10.2
			c12.2-6.6,24.6-12.8,34.9-21.9c0-3.8-1.3-8.1,0.2-11c4.4-8.5,3-15.7-3.6-22.5c-0.6-0.6-0.8-1.4-1.2-2.1
			c-6.5-8.6-12.6-17.6-23.1-22.6c-2.5-1.2-5-3.2-6.6-5.5c-4.3-6.5-7.5-6.9-13.7-1.7c-4.1,3.5-8.3,7.1-13.2,9.3
			c-12.4,5.4-23.6,12.5-34.9,19.6c-10.4,6.5-16.2,14.9-15.2,26.8c0.4,4.5-1.3,7.7-4.4,10.5c-3.4,3.1-6.9,6-10.6,8.8
			c-20.7,15.2-41.6,30.4-62.3,45.6C682.2,505.3,680.9,507,679.5,508.4z"/>
		<path id="XMLID_291_" fill="#231815" d="M793.3,923.6c-0.7-0.5-1.3-1-2-1.5c-5.2-4.3-8.4-4.4-12.3,0.7c-3,4-5,8.8-7.5,13.1
			c-1.7,2.9-3.7,5.6-6.3,9.4c-2.7-2.7-5-4.2-6.2-6.4c-5.1-9-10-18.1-14.7-27.3c-2.8-5.4-3.1-11.1-2-17c2-11.4,3.5-23,5.1-34.5
			c0.2-1.5,0-3,0-4.5c-11.1-0.3-19.3,5.3-21.5,14.7c-0.9,3.8-1.6,7.8-1.8,11.7c-0.4,8.3-2.5,16.2-6.2,23.6c-1.8,3.6-4.8,7.1-8.1,9.6
			c-4.9,3.8-8.8,7.6-10.6,13.6c-1,3.4-3.5,6.3-5.4,9.6c-5.9-1.9-7.3-5.6-7.8-10.1c-1.9-16.4-2-32.7,1-48.9
			c1.1-5.8,0.2-10.7-7.2-13.3c-6.1-2.1-6.6-6.3-2.3-11.2c6.6-7.4,13.5-14.6,20.2-21.9c1.1-1.2,2.6-2.3,2.9-3.6
			c1.6-7.4,2.8-14.8,4.2-22.3c-5.2-1.7-8.8,0.6-11.4,3.6c-14.1,16.4-29.6,31.9-41.1,50.3c-6.1,9.7-11.6,19.7-17,29.7
			c-2,3.7-2.9,7.9-4.2,12c-3.6,11.3-7,22.7-10.7,34c-1.5,4.5-3.5,8.6-3.5,13.6c0,2.8-3,6.2-5.7,8.1c-6.5,4.8-13.6,8.9-20.8,13.4
			c-4.4-2.1-6.2-6.4-8.1-10.4c-1.8-3.6-3-7.4-4.8-11c-4.2-8.5-5.2-17.2-2-26.1c2.2-6.2,4.5-12.4,6.3-18.7c2.7-9.1,5.7-18.2,7.5-27.5
			c1.9-9.9,4.4-19.5,8.9-28.7c1.6-3.3,2.6-6.9,4-10.4c5.9-14.7,11-29.8,17.8-44.1c8.3-17.5,15.2-35.4,20.8-53.8
			c2.2-7.5,7.4-12.7,13.2-17.7c9.4-8.2,18.6-16.5,27.9-24.7c4.7-4.1,9.5-8,14.1-12.2c6.1-5.6,6.2-8.9,0.2-14.6
			c-4.3-4.1-9-7.8-13.6-11.8c2.5-7,6.9-9.9,14.5-11.1c12.5-2.1,23-8.8,31.7-17.5c12-12,23.4-24.5,35.5-36.4
			c7.5-7.3,15.8-13.8,23.7-20.8c3-2.7,5.8-5.7,8.2-8.8c4.3-5.4,8.2-11.1,12.4-16.8c-8.5-6.2-15.6,2.7-24.7,0.5
			c2.4-2.7,3.9-6.2,5.9-6.5c7.2-1,10.5-6.3,14.9-10.5c6.3-5.9,12.7-11.7,19.4-17.2c3.5-2.9,7.4-5.2,12.9-2.9c2,0.9,5.2-0.6,7.8-1.3
			c4.5-1.2,8.9-2.7,13.4-3.8c3.5-0.9,5.9,0.7,7.5,3.7c1,1.9,1.7,4.1,3.2,5.5c8.4,7.7,11.1,17.5,12.2,28.1c0.5,5.3,1.3,10.5,2.2,15.7
			c0.7,4.4-0.8,7.5-4.7,10.1c-5.3,3.4-11,4.6-17.2,4.8c-10.2,0.3-20.4,1-30.7,1.2c-9.5,0.2-18.2,1.9-26.9,6
			c-15.5,7.3-30.1,15.6-42.4,27.1c-1.8,1.6-3.2,3.6-4.7,5.5c-3.9,4.9-7.7,9.9-11.8,15c4.1,2.2,7.4,5.1,12.4,3.3
			c1.3-0.5,3.2,0.7,4.8,0.7c5.8,0.2,11.3,0.4,16.7-2.9c6-3.6,12.8-6.1,19.5-8.4c6.4-2.2,14.8,3,18.5,10.7c3.1,6.6,1.8,10.9-5.7,15
			c-6,3.2-12.3,5.9-18.8,8.1c-10.3,3.5-17.4,10.4-24.7,18.5c6.8,1.9,12.3,0.8,17.5-0.6c10.1-2.7,17.8-0.5,24.4,7.4
			c1.7,2.1,4.9,3.8,7.7,4.3c5.7,1,10.4,3.5,15.1,6.4c6.9,4.3,10.7,3.5,15.2-2.7c13.8-19.3,27.8-38.5,41.2-58.1
			c7.5-11,13.7-22.8,21-33.8c6.6-10,13.9-19.6,21-29.3c4.9-6.7,9.7-13.4,15.1-19.7c8.5-9.9,17.5-19.5,26.1-29.3
			c1.4-1.5,2.7-3.4,3.2-5.3c2.3-9.4,6.9-12,16.1-7.1c3.2,1.7,6.5,3,9.8,4.4c6.8,2.9,10.1,8.4,11.1,14.9c1.4,8.5,3.7,16.4,8.7,23.8
			c3.5,5.1,4.5,11.3,1,17.4c-2.7,4.8-5.5,9.8-7.1,15c-2.2,7-3.6,14.3-4.9,21.6c-2.4,13.5-4.7,27.1-6.7,40.6
			c-0.9,6-1.2,12.1-1.1,18.2c0,4.9-1,9.2-3.6,13.5c-2.4,4-3.8,8.7-4.8,13.3c-1.9,9-3,18.2-4.8,27.3c-2.2,10.6-5.1,21.1-7.1,31.7
			c-2.9,15.3-5.7,30.7-7.5,46.1c-0.8,6.9,0.7,14.2,1.5,21.3c0.7,5.8,1.5,11.5-0.4,17.3c-1.2,3.9-0.5,7.8,2.4,11.2
			c1.9,2.3,3.4,4.9,4.7,7.5c1.7,3.6,4.3,4.5,8.1,3.4c4.2-1.2,8.5-2.5,12.8-3.3c5.9-1.2,12-2.1,17.9-3.1c10.1-1.8,20.2-3.4,30.2-5.4
			c21.4-4.3,42.8-8.8,64.2-13.2c0.8-0.2,1.6-0.5,2.4-0.7c9.3-3.4,10.3-7.2,4.7-15c-7.8-10.7-15.2-21.7-23-32.4
			c-2.7-3.7-5.9-7-9.2-10.4c-14.6-15-29.2-30-44.2-44.7c-4.2-4.1-9.4-7.4-14.3-10.8c-8.2-5.7-12.6-14-17.3-22.6
			c1.3,0.5,2.8,0.8,3.8,1.6c6.4,5.1,12.8,10.3,19.1,15.5c9.7,8,19.2,16.3,28.9,24.2c11,9,22,18.1,33.4,26.7
			c10.5,7.9,21.5,15.3,32.2,22.9c5.8,4.2,11.5,8.5,17.1,12.8c8.3,6.3,16.8,12.4,24.7,19.2c4.7,4,8.9,8.9,12.5,13.9
			c3.3,4.5,3.3,10,2.3,15.3c-0.7,3.6-1.3,7.2-1.8,10.3c0.5,0.9,0.6,1.2,0.8,1.4c2.3,2,6.5,2.7,5.3,7c-1,3.6-3.6,5.7-7.3,6.9
			c-14.7,4.8-30.1,7.1-45.4,9.4c-4.6,0.7-9.2,1.7-13.8,2.9c-5.3,1.4-10.5,3.2-15.8,4.7c-9.6,2.6-19.3,4.7-29.5,2
			c-2.8-0.7-6.1,0-9,0.4c-12.3,1.7-24.6,3.7-37,5.4c-11.2,1.5-22.7,1.9-33.8,4.1c-9.7,2-18.9,5.8-28.3,8.9c-1.3,0.4-2.4,1.3-3.6,1.9
			c-10.2,5.1-13.7,4.6-22.3-2.9c-4.1-3.6-8.2-7.3-12.5-10.7c-8-6.4-11.2-14.9-13.2-24.2c-1.2-5.4-3.4-10.6-4.9-15.9
			c-1.6-5.9-2.3-12-4.5-17.7c-3.5-8.9-1.6-16.8,1.5-25.2c3.4-9.1,5.7-18.7,7.3-28.3c3.4-21.3,5.6-42.9,12.3-63.6
			c3.9-12.1,2.9-24.7,2.1-37c-1.3-18.4-0.2-36.4,4.1-54.3c0.4-1.8,0.8-3.6,0.9-5.5c0.6-11.4,5.6-21.1,11.2-31
			c5.2-9.2,8.2-19.5,11.5-29.5c2-6.1-2.7-10.3-6.4-14.8c-6,1-9.2,5.5-12.1,9.2c-9,11.3-17.5,22.9-25.7,34.8
			c-9.6,14.1-18.3,28.8-28,42.8c-7.4,10.7-15.9,20.7-23.9,31.1c-0.5,0.6-1.1,1.2-1.5,1.9c-4.7,7.7-9.3,15.3-14.5,23.9
			c1.5,0.9,3.8,3.4,6,3.3c10.4-0.2,14.6,7.4,19.8,13.6c2.3,2.7,3.6,6,5.6,8.9c3.2,4.4,6.5,8.7,10,12.8c6,7,6.8,12.8,1.6,20.1
			c-2.7,3.8-2.7,7.7-2.8,12c-0.1,8.7,0,17.5-1.9,25.9c-2.4,11-2.6,22.1-2.3,33.1c0.5,19.5,1.4,39.1,6.1,58.3
			c2,8.2,1.9,16.8,2.6,25.2c0.7,9.8,1.3,19.5,1.5,29.3c0.1,4.4-0.8,8.9-1,13.3c-0.2,4.2-0.7,8.6,0.2,12.6c3.3,15-3.2,26.1-15.2,36.3
			c-2.4-1.4-5.1-2.5-7.2-4.3c-4.1-3.5-8.3-6.1-13.9-6.7c-2-0.2-4.5-2-5.7-3.7c-8.2-12.5-19.5-21.6-32.8-29
			c-7.6-4.3-14.3-10.2-21.1-15.7c-5.3-4.3-8.4-9.8-7.9-16.7c1.4,0.8,3.1,1.3,4.2,2.3c9.3,9.6,20.8,14.7,34.1,17.2
			c6.8,1.3,13.2,4.3,16.9,10.8c0.7,1.2,2.4,1.8,4.6,3.5c0.8-3.4,1.9-5.8,1.9-8.2c0-3.7-0.7-7.4-1.1-11c-1.4-13.4-2.7-26.8-4.2-40.2
			c-1.1-10.5-1.2-21.3-3.9-31.5c-2.8-10.6-4.6-21.2-5.6-32c-0.5-5.8-0.6-11.6-1.3-17.4c-2.2-18.7-2.8-37.3-1.8-56.1
			c0.4-7.9-2.1-16.1-3.6-24.1c-0.2-1.3-1.8-2.4-2.9-3.8c-4.6,3.3-5.6,7.8-6.9,12c-6.2,19.2-7.7,39.3-12.5,58.8
			c-1.7,7-0.5,11.2,6.1,14.2c0.4,0.2,0.6,0.9,1,1.7c-0.3,2.8-0.9,5.9-1.1,9.1c-0.2,3.6-2.1,5.6-5.5,7.1c-6.7,3-9.4,8-7.9,15.2
			c1.7,8,3.7,16,6,23.9c2.2,7.5,2.9,14.3-3,20.8c-3.9,4.3-6.2,10.2-10.5,14.1C791.3,913.9,791.8,918.4,793.3,923.6z M655.5,837.4
			c9.3-9.2,18.4-18.3,27.4-27.3c3.2-3.2,6.3-6.6,9.7-9.5c7.2-6.2,14.3-12.3,15.7-22.2c0.3-2,1.8-3.8,2.9-5.5c2.5-4,4.8-8.2,7.8-11.9
			c4.6-5.6,4.3-10.8,0.4-16.7c-3-4.7-3.7-9.4,0.2-14.7c3.8-5.1,5.4-11.3,0.6-17.7c-1.8,0.7-3.3,1.3-4.7,2
			c-10.3,5.5-20.2,11.8-30.9,16.5c-7.9,3.4-11.6,8.3-11.9,16.2c-0.1,2.1,0,4.3-0.5,6.3c-2.8,12.6-5,25.4-9,37.6
			c-4.3,13.2-10.2,25.8-15.6,39C650.2,832,652.3,834.1,655.5,837.4z M791.3,791c1.1-1.1,1.8-1.6,2.2-2.2
			c10.4-18.2,20.8-36.4,31-54.7c2.3-4.2,0.7-9-3.5-12.9c-5.2-4.7-7.7-5.4-13.3-2.3c-6.2,3.4-12.2,7.1-18.1,10.9
			c-6.6,4.2-12.1,9.7-20.1,12.1c-3,0.9-5.9,4.1-7.4,7c-1.9,3.5-3,7.2-6.8,9.5c-1.2,0.7-2,3.5-1.5,4.8c0.5,1.3,2.8,2.4,4.5,2.6
			c3.8,0.6,7.8,0.6,11.6,0.8c4.5,0.3,7.9,2.4,8.2,6.6C778.5,781.6,785.3,785.5,791.3,791z M764.5,734.9c4-1.9,7.6-2.6,9-4.6
			c3.5-4.8,8.2-7.5,13.4-10.1c4.6-2.3,8.7-5.6,12.7-8.7c3.7-2.9,4.1-8.7,0.9-12c-4-4.2-8.7-7.5-14.5-9c-6.6-1.7-12.6,0.8-16.2,6.3
			c-1.9,2.9-4,5.6-6.1,8.4c-1.7,2.3-2.5,4.5-0.7,7.3c2.3,3.6,2.1,7.4,1.3,11.5C763.8,727.1,764.4,730.4,764.5,734.9z M733.4,826.4
			c5.2-0.9,10.2-1.1,14.7-2.6c5.8-2,6.2-7.1,1.6-11c-1.8-1.6-3.5-3.3-5.4-4.9c-2.9-2.5-6-2.3-7.3,1
			C735,814.2,732.6,819.5,733.4,826.4z"/>
		<path id="XMLID_290_" fill="#231815" d="M681.1,551.4c-0.6,2.6-0.6,4.5-1.4,6c-2.6,4.7-1.2,9.2,0.3,13.8c1.2,3.5,3.5,5.9,7.3,7
			c6.3,1.9,9.2,6,9.7,12.4c0.6,6.3,2.4,12.5,3.7,18.7c0.5,2.6,1.1,5.2,1.4,7.8c0.8,8.5,0,8.7-8.6,11.3c-4.8,1.4-9.6,4.3-13.1,7.7
			c-5.1,5.1-10.9,5.2-16.8,3.4c-7.7-2.3-14.9-5.9-22.4-8.7c-3.2-1.2-5.1-3-5.5-6.3c-0.8-7.7-4.3-14.7-7.1-21.9
			c-4.3-11-4.4-21.9,3.8-31.4c1.6-1.9,4.1-3.9,6.5-4.3c13.2-1.7,24.9-6.7,35.9-13.4C676.5,552.6,678.4,552.3,681.1,551.4z"/>
		<path id="XMLID_289_" fill="#231815" d="M760,544.4c3,8.7,3.6,16.9,2,24.9c-1.5,7.8-7.7,12.7-15,15.6c-6,2.4-11.1,5.6-15,10.6
			c-1,1.3-2.2,2.4-3.5,3.3c-2.9,1.9-5.2,1.9-7.8-1.1c-4.5-5.3-9.7-10.1-14.3-15.3c-1.2-1.4-2.1-3.7-1.9-5.5
			c1.1-9.2,7.1-16.3,12.2-23.8c6.4-0.9,8.4-7.1,13.2-9.9c7-4,9.4-3.9,15.7,1.7c1.3,1.2,3.8,1.4,5.8,1.6c1.2,0.1,2.5-1,3.8-1.3
			C756.5,544.7,757.9,544.7,760,544.4z"/>
		<path id="XMLID_288_" fill="#231815" d="M679.5,508.4c1.4-1.5,2.7-3.1,4.3-4.3c20.7-15.2,41.6-30.4,62.3-45.6
			c3.7-2.7,7.3-5.7,10.6-8.8c3.1-2.8,4.7-6,4.4-10.5c-1-11.9,4.8-20.3,15.2-26.8c11.3-7.1,22.5-14.1,34.9-19.6
			c4.9-2.1,9.1-5.8,13.2-9.3c6.1-5.2,9.3-4.8,13.7,1.7c1.5,2.3,4,4.3,6.6,5.5c10.5,5.1,16.6,14,23.1,22.6c0.5,0.6,0.7,1.5,1.2,2.1
			c6.6,6.8,8,13.9,3.6,22.5c-1.5,2.9-0.2,7.2-0.2,11c-10.3,9.1-22.7,15.3-34.9,21.9c-8.2,4.4-16.4,8.7-25.9,10.2
			c-6.1,1-12,3.2-18.5,0.5c-2.3-0.9-6,0.3-8.6,1.4c-12.2,5-24,10.7-36.4,15.3c-14.4,5.3-29.4,9-45.1,9.9c-4.7,0.3-9.3,1.2-14,1.8
			c-2.9,0.3-5.9,0.5-8.8,0.7C680,509.8,679.8,509.1,679.5,508.4z"/>
		<path id="XMLID_285_" fill="#231815" d="M793.3,923.6c-1.5-5.2-2-9.7,3-14.2c4.3-3.9,6.6-9.7,10.5-14.1c5.8-6.5,5.1-13.3,3-20.8
			c-2.3-7.9-4.3-15.8-6-23.9c-1.5-7.2,1.2-12.2,7.9-15.2c3.4-1.5,5.3-3.5,5.5-7.1c0.2-3.1,0.7-6.3,1.1-9.1c-0.5-0.8-0.6-1.5-1-1.7
			c-6.6-3-7.8-7.3-6.1-14.2c4.8-19.5,6.3-39.6,12.5-58.8c1.4-4.2,2.3-8.7,6.9-12c1.1,1.4,2.6,2.5,2.9,3.8c1.5,8,4,16.2,3.6,24.1
			c-1,18.8-0.5,37.4,1.8,56.1c0.7,5.8,0.7,11.6,1.3,17.4c1,10.8,2.8,21.4,5.6,32c2.6,10.2,2.7,21,3.9,31.5
			c1.4,13.4,2.8,26.8,4.2,40.2c0.4,3.7,1.1,7.4,1.1,11c0,2.4-1.1,4.8-1.9,8.2c-2.2-1.6-3.9-2.3-4.6-3.5c-3.7-6.4-10.1-9.5-16.9-10.8
			c-13.3-2.5-24.8-7.5-34.1-17.2c-1-1.1-2.8-1.6-4.2-2.3C793,923.3,793.3,923.6,793.3,923.6z M830.2,747.7c-0.7,0-1.5-0.1-2.2-0.1
			c-0.9,2.7-2.2,5.3-2.8,8c-3.3,16.5-6.4,33.1-9.6,49.7c-0.6,2.9-0.2,5.3,2.8,6.8c5.2,2.6,5.9,6.5,4.2,11.4
			c-0.9,2.5-1.2,5.2-1.5,7.8c-0.5,4.5-2.6,8.2-7.1,9.9c-4.1,1.6-5.4,4.6-5,8.1c0.8,6.8,2.2,13.6,3.6,20.3c0.9,4.1,2.6,8.1,3.4,12.3
			c1,5.4,0.2,10.4-3.6,14.9c-3,3.4-5.6,7.2-8.1,10.9c-2.1,3-3.8,6.3-5.5,9.2c6.6,9.8,15,15.9,25.9,19c6.1,1.7,12.3,3.6,18.4,5.3
			c1.4,0.4,2.9,0.6,4.5,1c-1.2-11.4-2.3-22.2-3.4-33c-1.2-12.4-2.2-24.7-3.7-37.1c-0.9-7.1-3.5-13.9-4.2-21
			c-1.7-16-2.4-32.2-4.2-48.2c-1.4-12.7-1.4-25.3-0.6-38C831.7,759.1,830.6,753.4,830.2,747.7z"/>
		<path id="XMLID_282_" fill="#231815" d="M655.5,837.4c-3.2-3.2-5.3-5.3-7.8-7.9c5.4-13.2,11.3-25.9,15.6-39c4-12.3,6.1-25,9-37.6
			c0.5-2,0.4-4.2,0.5-6.3c0.3-7.9,4-12.8,11.9-16.2c10.7-4.7,20.6-10.9,30.9-16.5c1.4-0.8,3-1.3,4.7-2c4.8,6.3,3.2,12.6-0.6,17.7
			c-3.9,5.3-3.3,10-0.2,14.7c3.9,5.9,4.2,11.1-0.4,16.7c-3,3.7-5.3,7.9-7.8,11.9c-1.1,1.8-2.6,3.6-2.9,5.5
			c-1.5,9.9-8.5,16-15.7,22.2c-3.4,3-6.5,6.3-9.7,9.5C673.9,819.1,664.8,828.1,655.5,837.4z M718.2,718.3c-4.7,1.9-7.6,2.8-10.1,4.2
			c-6,3.3-11.5,7.4-17.7,10.2c-8.5,3.9-11.2,9.7-12.1,18.6c-1.2,12.2-4.2,24.5-7.9,36.2c-3.8,12-9.4,23.5-14.1,35.3
			c-0.6,1.4-0.3,3.1-0.5,6.1c2.9-1.8,4.6-2.6,5.8-3.8c7.6-7.9,14.9-16,22.5-24c3.6-3.8,7.6-7.4,11.3-11.3c1.7-1.7,3.3-3.5,4.5-5.6
			c5-8.4,9.9-16.9,14.6-25.5c1.2-2.2,2.1-4.9,2-7.3c0-1.9-1.6-3.9-2.7-5.7c-3.9-6.6-4.8-12.8,0.8-19
			C716.1,725.1,716.5,722.3,718.2,718.3z"/>
		<path id="XMLID_279_" fill="#231815" d="M791.3,791c-6-5.5-12.8-9.4-13.4-17.9c-0.3-4.2-3.7-6.3-8.2-6.6
			c-3.9-0.2-7.8-0.3-11.6-0.8c-1.7-0.3-4-1.4-4.5-2.6c-0.5-1.3,0.3-4,1.5-4.8c3.9-2.3,4.9-6,6.8-9.5c1.5-2.8,4.4-6.1,7.4-7
			c8-2.4,13.5-7.9,20.1-12.1c5.9-3.8,11.9-7.5,18.1-10.9c5.6-3,8.1-2.4,13.3,2.3c4.2,3.8,5.9,8.7,3.5,12.9
			c-10.2,18.3-20.6,36.5-31,54.7C793.1,789.4,792.4,789.9,791.3,791z M792.8,782.7c1.8-2.7,4-4.9,4.9-7.5
			c5.2-14.5,14.4-27,21.1-40.7c1.4-2.7,1.5-4.9-0.1-7.4c-3-4.5-6.4-5.8-11.2-2.9c-12.7,7.8-25.2,15.9-37.4,24.3
			c-3.4,2.4-5.6,6.3-4.9,11.4c2.3,0.4,4.4,0.8,6.6,1.2c7.5,1.1,10,2.8,11,9.8C783.6,776.6,786.9,779.8,792.8,782.7z"/>
		<path id="XMLID_276_" fill="#231815" d="M764.5,734.9c-0.1-4.5-0.7-7.8-0.1-10.9c0.8-4.1,0.9-7.9-1.3-11.5c-1.7-2.8-1-5,0.7-7.3
			c2.1-2.8,4.2-5.5,6.1-8.4c3.5-5.5,9.6-8,16.2-6.3c5.9,1.5,10.6,4.8,14.5,9c3.2,3.3,2.8,9.1-0.9,12c-4,3.2-8.1,6.5-12.7,8.7
			c-5.2,2.6-10,5.2-13.4,10.1C772.1,732.3,768.6,732.9,764.5,734.9z M798.3,705.7c-3-2.8-4.8-4.7-6.8-6.4
			c-9.1-7.3-16.6-2.5-21.3,4.4c-1,1.5-1,3.9-0.7,5.8c0.6,4,1.8,7.9,2.7,11.9C780.5,716.4,789,711.3,798.3,705.7z"/>
		<path id="XMLID_273_" fill="#231815" d="M733.4,826.4c-0.8-6.9,1.6-12.2,3.7-17.5c1.3-3.3,4.4-3.5,7.3-1c1.8,1.6,3.5,3.3,5.4,4.9
			c4.6,3.9,4.2,8.9-1.6,11C743.6,825.3,738.6,825.5,733.4,826.4z M738.4,820.8c3.4-0.8,5.8-1.3,8.2-1.9c0-0.5,0-1.1,0.1-1.6
			c-1.9-1.1-3.8-2.3-6.6-3.9C739.5,816.2,739.1,818,738.4,820.8z"/>
	</g>
	<g id="XMLID_79_">
		<path id="XMLID_124_" fill="#231815" d="M865,210.5c1.8,0.4,3.3,0.9,4.7,1.1c1,0.1,2.2-0.1,3-0.7c10-7.1,20-14.1,29.9-21.3
			c7.8-5.7,15.3-11.6,23-17.4c3.8-2.8,6.2-6.4,7.7-10.9c2.6-8.3,5.8-16.3,10.5-23.7c1.9-3.1,3.1-6.7,4.6-10.1c1-2.1,2-4.2,3-6.4
			c1.6-3.6,4.8-5.8,7.6-8.5c4.5-4.4,8.3-9.6,12.7-14.1c6.3-6.4,13.4-11.9,22.3-14.3c4.4-1.2,9.9-0.2,12.6,4.6
			c2.5,4.4,4.3,9.2,6.1,13.9c0.5,1.2,0.4,2.8,0,4c-1.6,4.3-3.2,8.5-5.1,12.6c-3,6.4-8,11.2-13.5,15.4c-8.9,6.7-18,13.2-27.1,19.7
			c-2.1,1.5-3.6,3.2-4.7,5.6c-4.1,9-8.5,17.9-12.4,27c-2.1,5-3.3,10.5-5.1,15.7c-1.5,4.4-3.4,8.7-5.1,13.1c-0.3,0.9-0.5,1.8-0.9,3
			c4.7-0.3,8.5-2.1,12.1-4.2c3.7-2.2,7.3-4.5,10.9-6.7c11.1-6.9,22.2-13.8,33.3-20.7c3.3-2,6.6-3.9,9.8-6c0.9-0.6,1.5-1.8,2.2-2.8
			c3.4-4.5,6.7-9,10.1-13.5c1.4-1.8,3.4-2.7,5.8-2.8c2.6-0.2,5-0.9,7.7-0.8c2.4,0.1,4.6-1.3,6-3.8c1.5-2.8,2.8-5.9,5-8
			c5.1-5,11.8-7.4,18.5-9.7c2.6-0.9,5.6-0.4,7.9,1.4c8,6.1,16.4,11.7,23.3,19.2c3.6,3.9,5.3,8.3,4.9,13.5c-0.1,0.8,0,1.6,0,2.6
			c3.2,0.2,5.8-1,8.4-2.2c8.1-3.7,16.2-7.6,24.3-11.4c4.6-2.2,9.4-4.1,13.7-6.7c5.5-3.4,10.5-7.6,15.9-11.1c3-1.9,6.3-3.3,9.5-4.9
			c0.5-0.2,1.1-0.5,1.6-0.4c1,0.2,1.9,0.6,2.8,0.9c-0.4,0.8-0.5,1.9-1.1,2.5c-4.5,4-9.2,7.8-13.7,11.7c-1.1,1-2,2.2-3,3.3
			c0.4,0.3,0.5,0.4,0.6,0.4c1.2,0.1,2.8-1.2,3.6,0.6c0.9,1.9-0.7,2.8-1.8,3.7c-0.7,0.6-1.6,1.1-2.5,1.5c-7,2.7-13.3,6.5-18.9,11.5
			c-5.8,5.2-12.6,8.1-20.1,10c-6.4,1.6-12.6,3.9-19,5.8c-2.9,0.8-4.5,2.7-5,5.4c-1.4,7.5-6.5,13-10.5,19c-1.8,2.7-4,5.2-6.3,7.7
			c-5.6,6.2-12.5,10.2-20.6,12.3c-3.3,0.9-6.4,2.4-9.7,3.5c-4.6,1.4-9.2,3-13.9,3.8c-4,0.7-7.8-0.5-11-3.5
			c-5.5-5.2-11.2-10.2-16.1-16c-4.4-5.1-4.4-10.7-2.9-16.7c0.9-3.5,1.6-7,2.3-10.5c0.2-0.8,0-1.6,0-3c-2.3,2-4.4,3.6-6,5.5
			c-3.9,4.4-8.6,7.8-14.2,9.6c-5,1.6-9,4.6-13.2,7.5c-4.5,3-8.9,6.1-13.6,8.6c-4.6,2.5-3.7,4.2-1.4,7c2.6,3.2,4.5,6.6,6.1,10.2
			c1.6,3.4,3.2,6.7,4.6,10.2c2.3,6.2,2.4,12.3-0.5,18.4c-2.6,5.5-6,10.5-9.8,15.2c-0.4,0.5-0.9,1.1-1.2,1.6
			c-5.5,9.1-13.1,16.3-20.7,23.5c-3.6,3.4-7.6,6.4-11.6,9.3c-3.7,2.6-8,3.7-12.5,2.4c-4.5-1.3-9.2-1.6-13.3-4.1
			c-2.3-1.4-3.8-3-4.4-5.6c-0.9-4.5-1.8-8.9-2.9-13.3c-1.1-4.6-0.8-9,0.6-13.5c3.8-12.2,7.3-24.6,11.4-36.7
			c5.7-16.8,11.6-33.6,18.8-49.8c2-4.4,3.6-8.9,5.4-13.4c0.2-0.5,0.2-1,0.4-2.4c-2.1,1.6-3.5,2.9-5.1,3.8
			c-12.6,7.6-23.4,17.3-34.4,26.9c-1.9,1.6-3.7,3.2-5.4,5c-3.8,4.1-2.6,9.2,0.3,12.4c3.8,4.2,5.2,9.3,7.1,14.3
			c1.2,3,0.8,6.1,0.2,9.3c-1.8,8.7-5,16.9-9.2,24.7c-2.3,4.3-5.2,8.5-8.5,12.2c-5.5,6.3-11.5,12.3-17.4,18.3
			c-2.3,2.4-4.9,4.5-7.5,6.5c-2.9,2.3-6.1,3.7-9.9,3.6c-3.2-0.1-6.3,0.1-9.5,0c-7.9-0.2-13.1-5.2-18-10.6c-0.5-0.6-0.6-1.8-0.5-2.7
			c0.3-3.7,0.8-7.4,1.2-11.1c0.3-2.7,0.9-5.5,0.7-8.2c-0.5-7.5,2.2-14.3,4.2-21.3c0.7-2.4,1.5-4.7,2.4-7c1.4-3.7,2.6-7.6,4.2-11.2
			c6.3-13.8,12.7-27.5,19.3-41.1c5.7-11.6,11.7-23.1,17.6-34.6c0.2-0.3,0.2-0.7,0.4-1.8c-4.9,3.5-9.4,6.6-13.1,10.6
			c-1,1.2-1.2,3.3-1.3,5c-0.3,4.6-0.8,9.3-3.4,13.1c-2.9,4.2-6.2,8.1-10,11.5c-5.9,5.4-12.4,10.1-18.4,15.3
			c-6.8,5.9-14.3,10.1-23.3,11.9c-4.7,0.9-9.3,2.4-14,3.5c-5.6,1.2-10.9,0.4-15.8-2.8c-2.7-1.7-5.4-3.4-7.8-5.4
			c-1.4-1.2-2.5-3-3.3-4.6c-1-2-2.3-2.6-4.3-2c-5.5,1.8-10.9,3.8-16.5,5.4c-6.2,1.8-12.5,3.3-18.7,4.9c-0.4,0.1-0.8,0.1-1.2,0.1
			c-8-1.2-16.1-2.1-24-3.8c-5.5-1.1-10.7-3.4-16.2-4.9c-4.2-1.1-8.6-2-12.9-2.6c-2.5-0.4-5.3-0.4-7.8,0.1
			c-5.5,1.1-11.1,2.3-16.5,3.9c-6.5,1.9-12.5,2-17.9-2.6c-1.6-1.4-3.5-1.5-5.5-1.4c-7.8,0.6-12.8-3.7-17-9
			c2.6-5.3,4.8-10.5,7.5-15.4c0.9-1.7,2.8-3,4.5-4.1c4-2.6,8.4-4.8,12.3-7.6c2.5-1.7,4.5-4,6.7-6.2c2.3-2.3,4.8-3.6,8.1-2.6
			c3.4,1,5.4-0.4,7.3-3.6c6.8-11.5,13.9-22.8,20.9-34.1c2.9-4.8,6-9.5,8.7-14.5c2.7-5,4.7-10.3,7.3-15.3c2-3.9,4-7.9,6.4-11.5
			c1.9-3,4.7-5.4,6.8-8.2c5.1-7,10.2-14,15.1-21.2c1.5-2.2,3.2-4.7,3.7-7.3c1.5-7.3,6.9-11.1,12.5-14.4c4.6-2.7,9.6-4.7,13.4-8.6
			c2.2-2.2,4.9-2.8,7.9-1.4c2.9,1.4,5.8,1.4,8.5-0.9c1.1-1,2.5-1.7,3.8-2.4c3.3-1.9,5.1-1.4,8.1,1.1c4.2,3.6,8.8,6.6,13,10.1
			c3.5,2.9,6.7,6.1,9.9,9.2c1.5,1.5,2,3.4,2,5.6c0.1,2.4,1.2,4.7,1.8,7.2c-1.9,2.1-4.3,2.7-7,1.6c-1.3-0.5-2.6-0.9-3.9-1.4
			c-3.6-1.5-5.9-1.2-8.5,1.7c-1.6,1.8-3.2,2.9-5.7,2.7c-0.8,0-1.7,0.8-2.6,1c-2.4,0.6-4.7,1.3-7.1,1.4c-1,0-2.1-1.5-3.5-2.7
			c-1.1,1.1-2.6,2.1-3.6,3.5c-6.3,8.5-12.6,17-18.9,25.6c-2.9,4-5.9,8-8.7,12c-2.8,4.1-5.8,8.1-8.3,12.3c-2.7,4.6-5,9.5-7.4,14.3
			c-2,3.9-3.9,7.9-6.2,11.6c-4.5,7.4-9.3,14.7-13.9,22c-0.1,0.1-0.2,0.2-0.2,0.4c-1.8,4.5-3.5,9.2-8.6,12.9c4.7,0.5,8.3,1,11.9,1.4
			c1.2,0.1,2.6,0,3.7,0.4c7.1,3,14.6,4.9,21.3,9c2.5,1.5,5.5,2.6,8.4,3.2c2.3,0.5,4.9,0.1,7.3-0.4c4.7-1.1,9.2-2.7,13.9-4
			c3.4-1,3.5-0.9,6.3,0.2c5.3-1.2,7.6-5.2,9.8-9.5c1-1.9,2.5-3.6,3.7-5.4c1.6-2.5,3.5-5,4.7-7.7c3.7-8.4,9.5-14.8,17.6-19.1
			c3.9-2,7.9-3.9,11.9-5.7c4.1-1.8,8.1-1,11.9,1.2c0.6,0.3,1.1,0.9,1.7,1.2c3.1,1.4,6.1,2.6,9-0.4c1.1-1.1,2.7-1.8,4.1-2.7
			c2.8-1.9,5.7-1.8,8.5,0c6.1,3.9,12.5,7.5,16.4,14.1c1.1,1.9,3.3,2.4,5.4,1.1c4.5-2.7,9-5.4,13.3-8.4c2.7-1.9,3.2-5.3,4.4-8.2
			c2.4-5.6,4.5-11.2,7-16.7c0.8-1.8,2.4-3.3,3.9-4.8c6-6.2,11.1-12.9,15.8-20.1c3.6-5.5,7.4-11,11.8-15.9c4.8-5.4,11.2-8.2,18.4-9
			c1.4-0.1,3.2,0.3,4.3,1.1c3.3,2.7,6.5,5.5,7.6,10c0.6,2.4,1.2,4.8,3.3,6.5c1.4,1.1,1,2.8,0.3,4.1c-0.7,1.5-1.7,2.9-2.7,4.1
			c-4.3,5.4-8.9,10.5-14.8,14.3c-3.8,2.4-6.6,5.7-9.5,9.1c-2,2.3-4.2,4.3-6.4,6.3c-3.6,3.2-7.3,6.3-10.9,9.5c-0.5,0.4-1.1,1.1-1,1.6
			c0.3,2.9-1.6,4.9-2.7,7.2c-5.9,12.4-12,24.8-18,37.2c-1.8,3.7-3.8,7.3-5.5,11.1C865.9,207.1,865.6,208.7,865,210.5z M1163.6,146.1
			c-0.2-0.2-0.5-0.5-0.7-0.7c-3.9,1.7-7.7,4.1-10,7.5c-2.2,3.2-5,4.3-8.1,5.5c-1.3,0.5-2.5,1.1-3.8,1.7c-8.8,4-17.5,8-26.3,12
			c-2.8,1.3-5.5,2.6-8.3,3.8c-2.4,1-4.8,2.1-7.3,2.9c-5.6,1.6-6.6,0.9-6.5-5c0-4.1-1.3-7.3-4-10.4c-6.5-7.2-14.4-12.7-22-18.7
			c-3.3-2.6-7.1-2-10.6-0.4c-3.3,1.4-6.4,3.1-9.6,4.7c-3.2,1.6-5.3,4.3-7,7.4c-0.9,1.7-1.9,3.4-2.6,5.2c-0.7,1.7-1.9,2.7-3.7,2.7
			c-2.6,0.1-5.2,0.2-7.8,0.2c-2.3,0-4.5,0.2-6,2.2c-2.9,3.8-5.8,7.6-8.5,11.6c-0.8,1.2-1.8,2.3-2.7,3.4c-2.3,2.9-5.5,4-8.4,5.8
			c-14,8.8-28,17.6-42,26.4c-4.3,2.7-8.5,5.7-13.5,7.1c-2.2,0.6-4.3,1.5-6.5,2.3c-2.7-2.1-1.6-4.5-0.7-6.8
			c5.7-13.4,8.8-27.9,15.4-41c3.4-6.8,6.3-13.8,9.6-20.6c0.5-1.1,1.7-2.1,2.7-2.8c2.2-1.4,4.5-2.5,6.7-3.9c1.8-1.2,3.5-2.7,5.3-4
			c5.7-4.1,11.5-8,17.1-12.2c8.2-6.1,12.6-14.8,15.7-24.2c0.2-0.6,0.3-1.4,0.2-2c-0.9-5.5-2.4-10.8-6-15.2c-2.3-2.8-5.4-4.2-9.2-3.2
			c-1.6,0.4-3.2,0.8-4.7,1.5c-7.1,3.3-13.1,8-18.4,13.7c-4.9,5.2-8.6,11.4-14.5,15.7c-1.8,1.3-2.9,3.6-3.9,5.7
			c-2.8,5.7-4.9,11.7-8.1,17.2c-3.5,6-6.1,12.4-8.4,18.8c-1.7,4.8-3.3,9.4-7.1,12.8c-3.4,3-6.9,5.9-10.5,8.6
			c-6.3,4.7-12.7,9.3-19.1,13.8c-7.6,5.4-15.4,10.7-23,16.1c-3.3,2.3-6.3,4.7-10.8,3.2c-1.5-0.5-3.4,0.4-5.5,0.7
			c0.1-1.1,0.1-1.7,0.3-2.3c1.9-5.6,4.1-11.1,7.2-16.2c1.2-2,2.5-4,3.5-6.1c5-10.4,10-20.9,14.9-31.3c1.1-2.4,2.7-4.6,3.3-7.1
			c0.6-2.3,1.8-4,3.4-5.5c3.8-3.5,7.9-6.9,11.8-10.4c1-0.9,2-1.9,2.8-3c3.5-4.6,7.3-9,12.2-12.2c2.4-1.6,4.7-3.4,6.8-5.4
			c3.6-3.4,7-7,9.2-11.5c-1-1.3-2-2.4-2.7-3.8c-0.7-1.5-1-3.1-1.5-4.7c-0.2-0.7-0.5-1.3-0.7-1.9c-3-6.5-7.3-8.3-14.1-6.2
			c-5.7,1.8-9.8,5.5-13.3,10c-4.2,5.6-8,11.5-12.2,17.1c-3.3,4.4-6.9,8.6-10.2,13c-2.4,3.1-5.3,6.1-7,9.6
			c-2.6,5.4-4.2,11.2-6.4,16.8c-0.6,1.6-1.4,3.3-2.6,4.5c-1.7,1.7-3.8,3.2-5.9,4.5c-3.4,2.1-6.9,4.1-10.3,6.1
			c-3.7,2.1-6.6,1.7-9.1-2.1c-3.9-5.7-9.7-9.1-15.3-12.9c-1.9-1.3-4.1-1.6-6.3-0.3c-2.2,1.4-4.5,2.7-6.7,4.2
			c-1.8,1.2-3.5,1.5-5.4,0.5c-2.2-1.1-4.6-2-6.8-3c-2.8-1.3-5.6-1.5-8.4-0.4c-2.9,1.2-5.9,2.3-8.7,3.8c-6.7,3.5-12.7,7.8-16.5,14.6
			c-3.2,5.9-6,12-10.5,17.2c-0.9,1-1.4,2.4-2.2,3.5c-1.2,1.8-2.5,3.7-3.8,5.3c-2.2,2.7-5,3.7-8.5,2.8c-1.3-0.3-2.8-0.4-4-0.1
			c-5.6,1.6-11.1,3.4-16.6,5c-0.9,0.3-1.9,0.5-2.7,0.4c-4.6-0.9-9-2.4-13.1-4.8c-2.4-1.4-5-2.4-7.5-3.4c-2.4-1-4.9-2-7.4-2.7
			c-3.1-0.9-6.3-1.8-9.5-2.4c-4.4-0.8-8.9-1.3-13.7-2c0.5-1.1,0.7-1.9,1.2-2.4c4.4-4.4,8.2-9.1,10.6-15c0.4-1,0.9-2,1.6-2.9
			c6.9-8.7,11.6-18.7,16.9-28.3c3.3-5.9,6.3-11.9,9.7-17.8c2.4-4,5.1-7.8,7.7-11.8c0.9-1.4,1.6-2.9,2.6-4.2
			c5.4-7.3,10.7-14.7,16.2-21.9c3.9-5,8-9.8,12.1-14.6c2.1-2.4,2.6-2.3,4.9-0.2c1,0.9,2.5,2.1,3.4,1.9c3.4-0.9,6.7-2.4,10.1-3.7
			c0.1,0,0.2-0.2,0.3-0.3c3.2-3.7,7-4.5,11.5-2.3c1.5,0.7,3.2,1,5.5,1.7c-0.6-2.1-1.2-3.4-1.2-4.6c0.2-4.9-3-7.8-6-10.8
			c-1.7-1.6-3.7-2.9-5.6-4.3c-4.3-3.2-9.1-5.7-12.5-10.1c-1.3-1.7-3.1-1.6-4.9-0.7c-1,0.5-1.9,1.1-2.7,1.9c-3.2,3-6.9,3.2-10.7,1.7
			c-3-1.1-5.2-0.3-7.5,1.7c-2.1,1.9-4.6,3.4-7,5c-2.4,1.6-5.1,2.8-7.5,4.4c-3.9,2.5-6.9,5.8-8,10.6c-0.3,1.5-0.9,2.9-1.7,4.2
			c-2.6,3.9-5.4,7.6-8.1,11.5c-2.7,3.8-5.3,7.7-8,11.5c-1.7,2.4-3.4,4.7-5.3,6.9c-3,3.5-5.4,7.3-7.4,11.4c-2.6,5.5-5,11.1-8,16.3
			c-4.4,7.6-9.3,15-13.9,22.5c-4.2,6.9-8.2,14-12.5,20.9c-2.4,4-5.1,7.9-7.8,11.6c-1.3,1.8-3.3,3-5.8,2.2c-4-1.3-6.7,0.6-9.4,3.4
			c-2.2,2.2-4.8,4.1-7.4,5.9c-3.4,2.4-7,4.4-10.3,6.8c-1.3,0.9-2.6,2.3-3.2,3.7c-1.4,3.4-2.9,6.8-5.4,9.7c-1.1,1.3-0.9,2.9,0.6,4
			c2.5,1.7,5,3.4,7.7,4.9c1,0.5,2.5,0.9,3.5,0.5c3.9-1.3,6.8,0.2,9.8,2.6c3.3,2.6,7.2,3.5,11.3,2.6c6.6-1.5,13.2-2.9,19.6-4.8
			c3.9-1.1,7.5-1.1,11.3,0.1c2.4,0.7,4.8,1,7.2,1.5c4.2,0.9,8.3,1.8,12.4,2.9c4.9,1.3,9.7,2.9,14.7,4.1c2.2,0.6,4.7,0.3,7,0.7
			c7.5,1.4,14.9,1.9,22.3-1c7-2.8,14.3-4.9,21.4-7.4c3-1.1,6.2,0.1,7.7,2.9c0.9,1.6,2.1,3.3,3.6,4.4c3.2,2.3,6.7,4.4,10.2,6.3
			c3.3,1.8,7.1,2.5,10.8,1.6c6.2-1.4,12.3-2.9,18.5-4.5c5.2-1.4,10.1-3.7,14.3-7.2c5.5-4.6,10.8-9.4,16.4-13.8
			c4-3.2,7.8-6.5,11.4-10.2c4.2-4.5,5.8-9.7,5.4-15.5c-0.3-4.7,1.3-8.3,4.9-11.1c3.6-2.9,7.3-5.9,11-8.6c1.4-1,3.1-1.6,4.5-2.3
			c1.7,1.3,2.3,2.4,1.2,4.2c-2,3.3-3.8,6.7-5.6,10.1c-2,3.6-3.9,7.3-5.7,11c-5.3,11.1-10.4,22.2-15.7,33.3
			c-3.6,7.6-7.2,15.2-11,22.7c-3.6,7.2-5.7,14.9-8,22.5c-1.5,4.9-3,9.9-3.2,14.9c-0.2,5-0.9,9.9-1.4,14.8c-0.2,1.9-0.5,3.8-0.5,5.8
			c0,1.1,0.2,2.4,0.8,3.1c3.7,4.6,7.9,8.5,14.4,8.6c3.8,0,7.7,0.1,11.5,0c1.4,0,2.9-0.1,4-0.8c3.2-2.1,6.6-4.1,9.3-6.7
			c4.8-4.5,9.1-9.6,13.8-14.2c11.3-10.9,17.6-24.5,21-39.6c0.4-1.6,0.9-3.3,0.7-4.9c-1.2-6.9-3.6-13.3-8.6-18.4
			c-3-3.1-3.5-6.7-2.2-10.1c1.2-3.1,3.5-6,6-8.2c5.3-4.8,10.9-9.3,16.4-13.8c4.1-3.3,8.2-6.5,12.4-9.6c5.4-4,11.2-7.5,16-12.3
			c0.7-0.7,1.7-1,3.2-1.8c-0.2,2.3-0.2,3.9-0.6,5.2c-0.9,3-2,6-3.2,8.9c-3.1,7.5-6.4,14.9-9.4,22.5c-2.9,7.4-5.6,15-8.2,22.5
			c-2.8,8.1-5.3,16.2-7.9,24.4c-1.9,6-3.4,12.2-5.9,18.1c-4.6,10.9-3.4,21.5-0.3,32.3c0.8,2.6,2.2,4.7,5.1,5.4
			c3.9,1,7.7,1.9,11.5,3.1c4.3,1.3,8.1,0.1,11.3-2.3c6.3-4.7,12.7-9.3,17.6-15.5c3.9-4.8,7.9-9.6,11.5-14.6
			c3.8-5.2,7.5-10.6,10.7-16.1c3.6-6.1,3.3-12.6,0.2-19c-1.4-2.8-2.6-5.8-3.7-8.7c-1.3-3.5-2.9-6.8-6-9.2c-3.8-3.1-3.5-7.5,0.5-10.3
			c0.8-0.6,1.7-1,2.5-1.5c3.3-2,6.7-3.8,9.9-5.9c3.7-2.4,7.1-5.2,10.8-7.6c1.8-1.2,3.9-2,5.9-2.8c4.1-1.6,8.1-3.4,11.4-6.5
			c2.6-2.4,5-5.1,7.6-7.6c1.2-1.1,2.5-2.2,3.9-3c0.7-0.4,2-0.5,2.5-0.1c0.5,0.4,0.7,1.7,0.6,2.5c-1.4,6.5-2.9,12.9-4.3,19.3
			c-0.9,3.9,0.4,7.4,2.7,10.4c5,6.7,11.2,12.1,17.6,17.4c2.9,2.4,6.4,3.3,10.1,2.1c3.5-1.1,7.1-2.4,10.6-3.6
			c3.8-1.3,7.5-2.7,11.3-3.9c5.3-1.6,10.4-3.5,14.1-8.1c4.1-5.2,8.4-10.2,12.4-15.4c1.8-2.4,3.9-4.9,4.6-7.6
			c1.2-4.3,3.2-8.1,5.4-11.6c2.2-0.5,4-0.9,5.8-1.5c7.1-2.2,14.1-4.6,21.2-6.7c5.1-1.5,9.7-3.4,13.8-7c4-3.5,8.6-6.3,13-9.5
			c0.9-0.6,2-1.3,2.3-2.2c1.9-5.3,5.7-8.9,10-12.2C1160.2,149.2,1161.8,147.6,1163.6,146.1z"/>
		<path id="XMLID_123_" fill="#231815" d="M1189.8,136c-0.3,0.5-0.7,1.4-1.4,2c-2.8,2.4-6.5,2.4-9.9,3.3c-0.4,0.1-1.5-0.5-1.6-1
			c-0.2-0.7,0-1.9,0.5-2.2c3.1-1.6,6.3-3.3,9.6-4.5C1188.5,133,1189.9,134.2,1189.8,136z"/>
		<path id="XMLID_122_" fill="#231815" d="M1204.6,126.2c0,3.8-2,6-5,5.8c-0.7,0-1.8-0.7-1.8-1.1c-0.1-0.8,0.4-1.6,0.8-2.4
			c0.1-0.2,0.5-0.3,0.7-0.3C1200.9,127.5,1202.6,126.9,1204.6,126.2z"/>
		<path id="XMLID_121_" fill="#231815" d="M1164.5,158.4c1.2-2.9,3.5-4,5.6-5.2c0.3-0.2,2.2,1.1,2.2,1.7c0,1-0.8,2.5-1.6,2.8
			C1168.8,158.3,1166.8,158.2,1164.5,158.4z"/>
		<path id="XMLID_109_" fill="#231815" d="M1163.6,146.1c-1.7,1.5-3.4,3.1-5.2,4.5c-4.3,3.3-8.1,6.9-10,12.2
			c-0.3,0.9-1.4,1.6-2.3,2.2c-4.3,3.2-8.9,6-13,9.5c-4.1,3.6-8.8,5.5-13.8,7c-7.1,2.1-14.2,4.5-21.2,6.7c-1.8,0.6-3.7,0.9-5.8,1.5
			c-2.2,3.4-4.2,7.2-5.4,11.6c-0.8,2.8-2.8,5.3-4.6,7.6c-4,5.2-8.4,10.2-12.4,15.4c-3.6,4.6-8.7,6.5-14.1,8.1
			c-3.8,1.2-7.5,2.6-11.3,3.9c-3.5,1.2-7,2.4-10.6,3.6c-3.7,1.2-7.2,0.3-10.1-2.1c-6.4-5.3-12.6-10.7-17.6-17.4
			c-2.3-3.1-3.6-6.5-2.7-10.4c1.4-6.4,2.9-12.9,4.3-19.3c0.2-0.8,0-2-0.6-2.5c-0.5-0.4-1.8-0.3-2.5,0.1c-1.4,0.8-2.7,1.9-3.9,3
			c-2.6,2.5-5,5.1-7.6,7.6c-3.3,3.1-7.3,4.9-11.4,6.5c-2,0.8-4.1,1.6-5.9,2.8c-3.7,2.4-7.1,5.2-10.8,7.6c-3.2,2.1-6.6,4-9.9,5.9
			c-0.8,0.5-1.7,0.9-2.5,1.5c-4,2.8-4.3,7.2-0.5,10.3c3.1,2.5,4.6,5.7,6,9.2c1.1,2.9,2.3,5.9,3.7,8.7c3.2,6.4,3.4,12.8-0.2,19
			c-3.3,5.6-7,10.9-10.7,16.1c-3.6,5-7.6,9.8-11.5,14.6c-5,6.2-11.4,10.8-17.6,15.5c-3.2,2.4-7.1,3.6-11.3,2.3
			c-3.8-1.2-7.6-2.1-11.5-3.1c-2.9-0.7-4.3-2.8-5.1-5.4c-3.1-10.8-4.3-21.5,0.3-32.3c2.5-5.8,3.9-12,5.9-18.1
			c2.6-8.1,5.1-16.3,7.9-24.4c2.6-7.6,5.3-15.1,8.2-22.5c3-7.6,6.3-15,9.4-22.5c1.2-2.9,2.3-5.9,3.2-8.9c0.4-1.4,0.4-2.9,0.6-5.2
			c-1.5,0.8-2.6,1.1-3.2,1.8c-4.8,4.8-10.5,8.3-16,12.3c-4.2,3.1-8.3,6.3-12.4,9.6c-5.6,4.5-11.2,8.9-16.4,13.8
			c-2.5,2.3-4.8,5.2-6,8.2c-1.3,3.4-0.9,7,2.2,10.1c4.9,5,7.4,11.5,8.6,18.4c0.3,1.5-0.3,3.3-0.7,4.9c-3.4,15.1-9.7,28.6-21,39.6
			c-4.7,4.6-9,9.7-13.8,14.2c-2.8,2.6-6.1,4.7-9.3,6.7c-1.1,0.7-2.6,0.8-4,0.8c-3.8,0.1-7.7,0.1-11.5,0c-6.4-0.1-10.7-3.9-14.4-8.6
			c-0.6-0.8-0.8-2.1-0.8-3.1c0-1.9,0.3-3.8,0.5-5.8c0.5-4.9,1.2-9.8,1.4-14.8c0.2-5,1.8-10,3.2-14.9c2.3-7.6,4.4-15.3,8-22.5
			c3.8-7.5,7.4-15.1,11-22.7c5.3-11.1,10.4-22.2,15.7-33.3c1.8-3.7,3.7-7.4,5.7-11c1.8-3.4,3.7-6.8,5.6-10.1c1-1.7,0.4-2.8-1.2-4.2
			c-1.4,0.7-3.1,1.3-4.5,2.3c-3.7,2.8-7.4,5.7-11,8.6c-3.6,2.8-5.2,6.4-4.9,11.1c0.4,5.8-1.2,11-5.4,15.5c-3.5,3.7-7.4,7-11.4,10.2
			c-5.6,4.5-10.9,9.2-16.4,13.8c-4.2,3.5-9.1,5.8-14.3,7.2c-6.1,1.7-12.3,3.2-18.5,4.5c-3.7,0.8-7.5,0.2-10.8-1.6
			c-3.5-1.9-6.9-4-10.2-6.3c-1.5-1.1-2.7-2.7-3.6-4.4c-1.5-2.8-4.8-4-7.7-2.9c-7.1,2.6-14.4,4.7-21.4,7.4c-7.4,2.9-14.8,2.4-22.3,1
			c-2.3-0.4-4.7-0.1-7-0.7c-4.9-1.2-9.7-2.8-14.7-4.1c-4.1-1.1-8.3-2-12.4-2.9c-2.4-0.5-4.9-0.8-7.2-1.5c-3.8-1.2-7.4-1.2-11.3-0.1
			c-6.5,1.9-13,3.3-19.6,4.8c-4.1,0.9-8,0-11.3-2.6c-2.9-2.3-5.9-3.8-9.8-2.6c-1,0.3-2.5,0-3.5-0.5c-2.6-1.5-5.2-3.1-7.7-4.9
			c-1.5-1-1.7-2.6-0.6-4c2.5-2.9,3.9-6.3,5.4-9.7c0.6-1.4,1.9-2.8,3.2-3.7c3.4-2.4,7-4.4,10.3-6.8c2.6-1.8,5.2-3.7,7.4-5.9
			c2.7-2.8,5.4-4.6,9.4-3.4c2.5,0.8,4.5-0.4,5.8-2.2c2.8-3.8,5.4-7.6,7.8-11.6c4.3-6.9,8.3-14,12.5-20.9c4.6-7.5,9.5-14.8,13.9-22.5
			c3-5.2,5.4-10.8,8-16.3c1.9-4.1,4.4-7.9,7.4-11.4c1.9-2.2,3.6-4.5,5.3-6.9c2.7-3.8,5.3-7.7,8-11.5c2.7-3.8,5.5-7.6,8.1-11.5
			c0.8-1.2,1.4-2.7,1.7-4.2c1-4.8,4.1-8,8-10.6c2.4-1.6,5-2.8,7.5-4.4c2.4-1.5,4.9-3.1,7-5c2.3-2,4.5-2.8,7.5-1.7
			c3.8,1.4,7.5,1.3,10.7-1.7c0.8-0.7,1.8-1.4,2.7-1.9c1.7-0.9,3.6-1,4.9,0.7c3.3,4.4,8.2,6.9,12.5,10.1c1.9,1.4,3.9,2.6,5.6,4.3
			c3,3,6.2,5.9,6,10.8c0,1.3,0.6,2.6,1.2,4.6c-2.2-0.7-4-0.9-5.5-1.7c-4.5-2.2-8.2-1.4-11.5,2.3c-0.1,0.1-0.1,0.3-0.3,0.3
			c-3.3,1.3-6.6,2.7-10.1,3.7c-0.9,0.2-2.4-1-3.4-1.9c-2.3-2-2.8-2.2-4.9,0.2c-4.1,4.8-8.3,9.6-12.1,14.6
			c-5.5,7.2-10.8,14.6-16.2,21.9c-1,1.3-1.7,2.8-2.6,4.2c-2.6,3.9-5.3,7.7-7.7,11.8c-3.4,5.8-6.5,11.8-9.7,17.8
			c-5.3,9.6-10,19.6-16.9,28.3c-0.7,0.9-1.2,1.9-1.6,2.9c-2.4,5.8-6.3,10.6-10.6,15c-0.5,0.5-0.7,1.3-1.2,2.4
			c4.8,0.7,9.3,1.2,13.7,2c3.2,0.6,6.4,1.4,9.5,2.4c2.5,0.7,4.9,1.7,7.4,2.7c2.5,1.1,5.1,2,7.5,3.4c4.1,2.4,8.5,3.9,13.1,4.8
			c0.8,0.2,1.8-0.1,2.7-0.4c5.5-1.7,11-3.4,16.6-5c1.2-0.4,2.8-0.2,4,0.1c3.5,0.9,6.3-0.2,8.5-2.8c1.4-1.7,2.6-3.5,3.8-5.3
			c0.8-1.1,1.3-2.5,2.2-3.5c4.5-5.1,7.3-11.3,10.5-17.2c3.7-6.8,9.8-11.1,16.5-14.6c2.8-1.5,5.8-2.7,8.7-3.8c2.8-1.1,5.6-1,8.4,0.4
			c2.2,1.1,4.6,2,6.8,3c2,0.9,3.7,0.7,5.4-0.5c2.2-1.5,4.4-2.8,6.7-4.2c2.1-1.3,4.4-1,6.3,0.3c5.5,3.8,11.3,7.2,15.3,12.9
			c2.6,3.7,5.5,4.2,9.1,2.1c3.5-2,7-3.9,10.3-6.1c2.1-1.3,4.2-2.7,5.9-4.5c1.2-1.2,2-2.9,2.6-4.5c2.2-5.6,3.8-11.4,6.4-16.8
			c1.7-3.5,4.5-6.5,7-9.6c3.4-4.4,7-8.5,10.2-13c4.2-5.6,8-11.5,12.2-17.1c3.4-4.5,7.6-8.3,13.3-10c6.8-2.1,11.1-0.3,14.1,6.2
			c0.3,0.6,0.5,1.3,0.7,1.9c0.5,1.6,0.8,3.2,1.5,4.7c0.6,1.3,1.7,2.4,2.7,3.8c-2.2,4.5-5.7,8.1-9.2,11.5c-2.1,2-4.4,3.8-6.8,5.4
			c-4.9,3.3-8.7,7.6-12.2,12.2c-0.8,1.1-1.8,2-2.8,3c-3.9,3.5-7.9,6.9-11.8,10.4c-1.6,1.5-2.8,3.2-3.4,5.5c-0.6,2.5-2.2,4.7-3.3,7.1
			c-5,10.4-9.9,20.9-14.9,31.3c-1,2.1-2.2,4.1-3.5,6.1c-3.2,5.1-5.3,10.6-7.2,16.2c-0.2,0.6-0.2,1.3-0.3,2.3c2.1-0.3,4-1.2,5.5-0.7
			c4.5,1.6,7.5-0.8,10.8-3.2c7.6-5.5,15.3-10.7,23-16.1c6.4-4.5,12.8-9.1,19.1-13.8c3.6-2.7,7.1-5.6,10.5-8.6
			c3.8-3.4,5.4-8,7.1-12.8c2.3-6.4,4.9-12.8,8.4-18.8c3.2-5.4,5.3-11.5,8.1-17.2c1-2.1,2.2-4.4,3.9-5.7c5.9-4.3,9.7-10.5,14.5-15.7
			c5.3-5.7,11.3-10.4,18.4-13.7c1.5-0.7,3.1-1.1,4.7-1.5c3.8-1.1,6.8,0.4,9.2,3.2c3.6,4.4,5.2,9.7,6,15.2c0.1,0.7,0.1,1.4-0.2,2
			c-3.1,9.4-7.6,18.1-15.7,24.2c-5.6,4.2-11.4,8.1-17.1,12.2c-1.8,1.3-3.4,2.8-5.3,4c-2.2,1.4-4.5,2.5-6.7,3.9
			c-1.1,0.7-2.2,1.7-2.7,2.8c-3.3,6.8-6.2,13.8-9.6,20.6c-6.6,13.1-9.7,27.5-15.4,41c-1,2.3-2,4.7,0.7,6.8c2.2-0.8,4.3-1.7,6.5-2.3
			c5-1.4,9.2-4.4,13.5-7.1c14-8.8,28-17.7,42-26.4c2.9-1.8,6.1-2.9,8.4-5.8c0.9-1.1,1.8-2.2,2.7-3.4c2.7-4,5.6-7.8,8.5-11.6
			c1.5-2,3.7-2.2,6-2.2c2.6,0,5.2,0,7.8-0.2c1.8-0.1,3-1,3.7-2.7c0.7-1.8,1.7-3.5,2.6-5.2c1.7-3.1,3.8-5.7,7-7.4
			c3.2-1.6,6.4-3.3,9.6-4.7c3.5-1.5,7.2-2.2,10.6,0.4c7.6,5.9,15.5,11.5,22,18.7c2.8,3.1,4.1,6.3,4,10.4c-0.1,5.9,1,6.6,6.5,5
			c2.5-0.7,4.9-1.8,7.3-2.9c2.8-1.2,5.5-2.5,8.3-3.8c8.8-4,17.5-8,26.3-12c1.3-0.6,2.5-1.2,3.8-1.7c3.1-1.2,6-2.3,8.1-5.5
			c2.3-3.4,6.1-5.7,10-7.5C1163.1,145.6,1163.4,145.8,1163.6,146.1z M916.6,294.1c-0.1,4.3,1.5,5.5,5.6,4.2c4-1.3,7-3.9,9.2-7.3
			c5.4-8.5,10.8-17,16.1-25.5c1.2-1.9,2.2-3.8,3.2-5.8c2.2-4.4,1.8-9.1,1.4-13.8c-0.3-3.6-3.1-5.3-5.4-7.4c-2.6-2.5-2.9-2.4-5.2,0.6
			c-2.8,3.7-5.7,7.5-11.1,7.6c-2.5,0.1-4,1.6-4.9,3.8c-1.2,3.1-2.3,6.2-3.4,9.3c-1.3,3.6-2.4,7.3-4,10.8c-1.9,4.4-3.2,8.8-1.4,13.6
			c0.5,1.2,0.3,2.7,0.3,4.1C917,290.3,916.8,292.2,916.6,294.1z M837.8,289.3c0.6-0.2,1.1-0.2,1.6-0.4c7-3.3,13.3-7.9,18.8-13.2
			c6.6-6.5,12-14,15.7-22.5c2.5-5.7,0.8-11.2-1.2-16.7c-0.1-0.2-0.3-0.4-0.5-0.7c-0.9-1.3-2-1.3-3.1-0.3c-0.5,0.4-0.9,1-1.3,1.6
			c-2.2,2.8-5.1,4.1-8.7,3.8c-2.4-0.2-4.8-0.5-7.4-0.8c-0.3,0.4-0.7,0.8-0.9,1.2c-4.7,10-9.3,19.9-13.9,29.9c-0.5,1.1-0.3,2.6-0.3,4
			c0,2.4,0.2,4.9,0.2,7.3C836.8,284.8,836.3,287.1,837.8,289.3z M1037.8,180.4c0.7,2.3,0.3,5.4-1.4,8.2c-1.6,2.7-3.4,5.4-4.8,8.2
			c-1.3,2.7-2.3,5.6-3.2,8.4c-0.3,0.8-0.3,2.1,0.2,2.7c2.3,3.5,4.7,7,6.8,10.1c3.2-1,5.8-1.8,8.4-2.5c5.4-1.6,10.4-3.6,12.8-9.4
			c0.5-1.3,1.9-2.3,2.8-3.6c3-4,4.8-8.3,3.9-13.5c-0.6-3.3-1.4-4.1-4.8-4.7c-1.6-0.3-3.3-0.5-4.9-0.5c-2.4,0-3.9-1.2-5-3.1
			c-0.7-1.2-1.2-2.5-1.7-3.7c-0.8-1.8-1.9-3.3-3.8-3.9C1041.4,175.5,1039.9,177.6,1037.8,180.4z M775.3,202.9c0.3,1,0.5,1.9,0.9,2.5
			c1.6,2.6,3.3,5.1,5,7.6c1.7,2.4,3,2.8,5.6,1.1c3.9-2.6,7.9-5.2,11.2-8.3c4.8-4.5,9.1-9.6,13.4-14.5c1.2-1.4,2.2-3.2,2.9-4.9
			c0.9-2.1,0.4-3.6-1.7-4.4c-4.2-1.6-8.1-3.5-11.6-6.2c-0.7-0.5-2.4-0.7-3-0.2c-1.6,1.2-3.5,2.6-4.2,4.3c-1.8,4.9-5.5,8.2-9,11.7
			c-2.9,2.9-5.7,6-8.5,9C776,201.2,775.7,202.1,775.3,202.9z M995,103c-3.4,1.2-5.8,2.9-7.9,5.1c-2.1,2.3-4.4,4.5-7,6.3
			c-3.2,2.3-5.1,5.2-6,9c-0.8,3.2-1.8,6.3-2.9,9.4c-0.8,2.2-2,4.2-3.1,6.3c-0.7,1.2-1,2.4,0.1,3.4c1.2,1.1,2.3,0.2,3.3-0.5
			c0.6-0.5,1.2-1.1,1.8-1.7c3.9-3.7,7.7-7.4,11.6-11.1c4.1-3.9,7.7-8.2,9.6-13.7C995.8,111.4,996.8,107.5,995,103z M1066.5,181.5
			c0.9-1.7,1.6-2.6,1.9-3.8c0.8-2.9,1.2-5.9,2.2-8.8c1.3-3.9,0.7-7.4-2-10.4c-1.9-2.1-4.1-4-6.4-5.7c-1.6-1.1-3.3-0.8-4.8,0.7
			c-1.7,1.6-3.6,2.8-5.4,4.3c-0.8,0.7-1.9,1.3-2.4,2.2c-2.6,5-0.9,11,4,14C1057.7,176.3,1061.8,178.7,1066.5,181.5z M902.9,130.2
			c1.3-1,2.1-1.6,2.8-2.4c4.8-4.8,9.6-9.5,14.3-14.3c1.1-1.1,2.2-2.1,3.1-3.3c1.4-1.7,1.3-3.8,0.2-5.3c-1.5-1.9-2.7-2.1-5-0.7
			c-3.5,2.2-5.7,5.6-7.8,9c-2.1,3.4-4.2,6.7-6.3,10.1C903,125.2,902.7,127.3,902.9,130.2z M814.6,179.2c3.4-1.8,5.8-4.2,6.7-7.7
			c0.3-1.2,0.2-2.8-0.3-3.9c-1.1-2.3-6.6-4.3-8.8-3c-1.5,0.9-2.3,2.9-3.5,4.4c-1.3,1.6-0.8,3.1,0.4,4.5
			C810.9,175.5,812.8,177.3,814.6,179.2z M857.5,224.9c4.4,3.8,8,3.2,8.6-4.2c-2.8-3.6-5.1-2.4-6.9,0.7
			C858.5,222.5,858,223.8,857.5,224.9z M932.1,238.2c3.1-0.4,5.5-1.8,6.7-4.5c0.8-1.7,0.9-4-1-5.5
			C933.7,230.1,931.8,233.6,932.1,238.2z"/>
		<path id="XMLID_106_" fill="#231815" d="M916.6,294.1c0.2-1.9,0.4-3.8,0.5-5.7c0.1-1.4,0.2-2.9-0.3-4.1c-1.8-4.8-0.5-9.1,1.4-13.6
			c1.5-3.5,2.6-7.2,4-10.8c1.1-3.1,2.2-6.2,3.4-9.3c0.8-2.2,2.4-3.7,4.9-3.8c5.4-0.1,8.3-3.9,11.1-7.6c2.2-3,2.5-3.1,5.2-0.6
			c2.3,2.1,5.1,3.8,5.4,7.4c0.4,4.7,0.7,9.4-1.4,13.8c-1,2-2,3.9-3.2,5.8c-5.3,8.5-10.7,17-16.1,25.5c-2.2,3.4-5.2,6-9.2,7.3
			C918.1,299.6,916.5,298.5,916.6,294.1z M943.8,240.8c-1.4,1.5-2.7,2.9-4,4.3c-2.1,2.4-4.6,4.1-7.7,4.3c-3,0.2-4.3,2.1-5.1,4.6
			c-2.4,7.4-4.9,14.9-7.2,22.4c-0.4,1.5-0.4,3.3,0,4.7c0.6,2.3,0.8,4.5,0.6,6.9c-0.3,2.5-0.9,5.2,1,7.5c3.7-0.5,6.2-2.7,8-5.4
			c3.5-5.2,6.6-10.7,10-16.1c1.6-2.6,3.2-5.1,4.9-7.6c3.2-4.9,5.8-10,5.6-16.1C949.5,246.3,948.7,242.6,943.8,240.8z"/>
		<path id="XMLID_103_" fill="#231815" d="M837.8,289.3c-1.5-2.2-1-4.5-1-6.8c0-2.4-0.2-4.9-0.2-7.3c0-1.3-0.2-2.8,0.3-4
			c4.5-10,9.2-20,13.9-29.9c0.2-0.5,0.6-0.9,0.9-1.2c2.6,0.3,5,0.6,7.4,0.8c3.6,0.3,6.5-1,8.7-3.8c0.4-0.5,0.8-1.1,1.3-1.6
			c1.1-1,2.2-1,3.1,0.3c0.2,0.2,0.4,0.4,0.5,0.7c2,5.4,3.7,10.9,1.2,16.7c-3.8,8.5-9.1,16.1-15.7,22.5c-5.5,5.4-11.8,9.9-18.8,13.2
			C838.9,289.1,838.4,289.1,837.8,289.3z M839.9,285.1c4-0.7,6.3-3.1,9-5c10.1-7,17.4-16.2,22.5-27.3c2.2-4.8,0.7-9.3-0.3-14.3
			c-3.2,1.9-5.8,4.3-8.8,5.1c-3,0.8-6.5,0.2-9.9,0.2c-0.2,0.2-0.5,0.5-0.6,0.9c-3.6,7.9-7.1,15.8-10.7,23.7
			c-1.1,2.5-2.3,4.9-1.2,7.8c0.5,1.2,0.1,2.7,0,4.1C839.9,281.7,839.9,283.2,839.9,285.1z"/>
		<path id="XMLID_100_" fill="#231815" d="M1037.8,180.4c2.1-2.8,3.6-4.9,5.3-7.2c1.9,0.6,3,2.1,3.8,3.9c0.5,1.3,1.1,2.5,1.7,3.7
			c1.1,1.9,2.6,3.1,5,3.1c1.6,0,3.3,0.2,4.9,0.5c3.4,0.5,4.2,1.4,4.8,4.7c0.9,5.1-0.9,9.5-3.9,13.5c-0.9,1.2-2.3,2.2-2.8,3.6
			c-2.4,5.8-7.4,7.8-12.8,9.4c-2.6,0.8-5.2,1.6-8.4,2.5c-2.1-3.1-4.6-6.5-6.8-10.1c-0.4-0.7-0.5-1.9-0.2-2.7
			c0.9-2.9,1.9-5.7,3.2-8.4c1.4-2.8,3.2-5.5,4.8-8.2C1038.1,185.8,1038.4,182.8,1037.8,180.4z M1043.5,178.3
			c-0.6,1.2-1.1,1.7-1.2,2.3c-1.5,6.1-4.7,11.4-8,16.7c-1.1,1.7-1.8,3.7-2.3,5.7c-0.3,1.2-0.3,2.9,0.3,3.9c1.3,2.2,3,4.2,4.7,6.2
			c0.4,0.4,1.4,0.7,1.9,0.5c4.5-1.5,9.4-2,13.1-5.6c3.6-3.5,6.2-7.6,7.9-12.3c1.9-5.2-0.1-8.4-5.6-8.4c-5.3,0-8.6-2.2-10-7.2
			C1044.3,179.7,1044,179.4,1043.5,178.3z"/>
		<path id="XMLID_97_" fill="#231815" d="M775.3,202.9c0.4-0.8,0.7-1.7,1.3-2.4c2.8-3.1,5.6-6.1,8.5-9c3.5-3.5,7.2-6.7,9-11.7
			c0.6-1.7,2.6-3.1,4.2-4.3c0.6-0.5,2.3-0.3,3,0.2c3.6,2.7,7.5,4.6,11.6,6.2c2.1,0.8,2.6,2.3,1.7,4.4c-0.7,1.7-1.7,3.5-2.9,4.9
			c-4.4,5-8.7,10-13.4,14.5c-3.4,3.2-7.3,5.8-11.2,8.3c-2.6,1.7-3.9,1.3-5.6-1.1c-1.8-2.5-3.4-5-5-7.6
			C775.8,204.7,775.7,203.9,775.3,202.9z M799.1,178.6c-1.3,1.5-2.9,2.7-3.7,4.3c-2.6,5.6-7.9,8.7-11.7,13.2
			c-1.7,1.9-3.4,3.8-5.3,5.9c2.5,3.7,4.8,7.1,7.2,10.6c5.3-2.7,9.4-6.1,13.2-9.9c4-4,7.6-8.4,11.3-12.6c0.5-0.6,1.2-1.2,1.5-1.9
			c0.9-1.6,0.4-3.4-1.2-4.2C806.7,182.2,803,180.5,799.1,178.6z"/>
		<path id="XMLID_94_" fill="#231815" d="M995,103c1.8,4.5,0.8,8.4-0.5,12.3c-1.9,5.5-5.5,9.8-9.6,13.7c-3.9,3.7-7.7,7.4-11.6,11.1
			c-0.6,0.6-1.1,1.2-1.8,1.7c-1,0.8-2.1,1.6-3.3,0.5c-1.2-1-0.8-2.1-0.1-3.4c1.1-2,2.3-4.1,3.1-6.3c1.1-3.1,2.2-6.2,2.9-9.4
			c0.9-3.8,2.8-6.7,6-9c2.6-1.8,4.9-4,7-6.3C989.2,105.9,991.6,104.2,995,103z M973.4,136.9c1.1-1.1,2.2-2.1,3.2-3.1
			c2.9-3.1,5.7-6.4,8.8-9.3c3.5-3.3,5.4-7.6,7.3-11.8c0.6-1.4,0.3-3.3,0.4-5.7c-1.4,0.9-2.2,1.2-2.8,1.7c-3.4,3-6.8,6-10,9.1
			c-1,0.9-2,2.2-2.2,3.4c-0.8,5.4-2.8,10.3-5.1,15.1C973,136.3,973.2,136.5,973.4,136.9z"/>
		<path id="XMLID_91_" fill="#231815" d="M1066.5,181.5c-4.7-2.8-8.8-5.2-12.9-7.6c-4.9-3-6.6-9-4-14c0.5-0.9,1.5-1.5,2.4-2.2
			c1.8-1.4,3.7-2.7,5.4-4.3c1.6-1.5,3.3-1.8,4.8-0.7c2.3,1.7,4.5,3.6,6.4,5.7c2.6,3,3.3,6.5,2,10.4c-0.9,2.9-1.4,5.9-2.2,8.8
			C1068.1,178.8,1067.4,179.8,1066.5,181.5z M1064.6,175.9c5.2-9.8,4-15.7-3.5-19.4c-1.6,0.6-3,1.1-4.4,1.6c-4.6,1.8-6.4,7.6-3,11.1
			C1056.6,172.3,1060.4,174.5,1064.6,175.9z"/>
		<path id="XMLID_88_" fill="#231815" d="M902.9,130.2c-0.2-2.9,0.1-5,1.3-6.9c2.1-3.4,4.2-6.7,6.3-10.1c2.1-3.4,4.3-6.8,7.8-9
			c2.3-1.4,3.5-1.2,5,0.7c1.2,1.5,1.2,3.6-0.2,5.3c-0.9,1.2-2.1,2.2-3.1,3.3c-4.8,4.8-9.5,9.6-14.3,14.3
			C905,128.6,904.2,129.2,902.9,130.2z M921.7,107.1c-4.5-0.5-7.4,2.7-9.3,9.8C915.3,113.6,919.7,111.9,921.7,107.1z"/>
		<path id="XMLID_85_" fill="#231815" d="M814.6,179.2c-1.9-1.9-3.8-3.7-5.5-5.7c-1.2-1.3-1.7-2.8-0.4-4.5c1.2-1.5,2-3.4,3.5-4.4
			c2.1-1.4,7.6,0.6,8.8,3c0.5,1.1,0.7,2.7,0.3,3.9C820.4,175,818,177.4,814.6,179.2z M813,166.8c-2.7,4.1-2.1,5.3,3.9,8.4
			c1.8-1.2,2.5-3,1.9-4.9C817.9,167.9,815.6,167.2,813,166.8z"/>
		<path id="XMLID_82_" fill="#231815" d="M857.5,224.9c0.5-1.1,1-2.4,1.7-3.5c1.8-3.1,4.1-4.3,6.9-0.7
			C865.5,228.1,861.9,228.7,857.5,224.9z M862,224.3c0.4-0.6,0.9-0.9,0.9-1.3c0-0.3-0.6-0.6-0.9-0.9c-0.3,0.4-0.6,0.8-0.8,1.2
			C861.2,223.4,861.6,223.8,862,224.3z"/>
		<path id="XMLID_81_" fill="#231815" d="M932.1,238.2c-0.4-4.6,1.6-8,5.7-10c1.9,1.5,1.8,3.8,1,5.5
			C937.7,236.3,935.2,237.8,932.1,238.2z"/>
		<path id="XMLID_80_" fill="#231815" d="M862,224.3c-0.4-0.5-0.8-0.9-0.7-1.1c0.1-0.4,0.5-0.8,0.8-1.2c0.3,0.3,0.9,0.6,0.9,0.9
			C862.9,223.4,862.4,223.7,862,224.3z"/>
	</g>
</g>
</svg>
