<?xml version="1.0" encoding="utf-8"?>
<!-- Generator: Adobe Illustrator 18.0.0, SVG Export Plug-In . SVG Version: 6.00 Build 0)  -->
<!DOCTYPE svg PUBLIC "-//W3C//DTD SVG 1.1//EN" "http://www.w3.org/Graphics/SVG/1.1/DTD/svg11.dtd">
<svg version="1.1" xmlns="http://www.w3.org/2000/svg" xmlns:xlink="http://www.w3.org/1999/xlink" x="0px" y="0px"
	 viewBox="0 0 283.5 283.5" enable-background="new 0 0 283.5 283.5" xml:space="preserve">
<g id="octagon">
	<polygon fill="#F0C8A5" stroke="#E9AE78" stroke-width="5" stroke-miterlimit="10" points="85.1,278.4 5,198.3 5,85 85.1,4.9 
		198.4,4.9 278.5,85 278.5,198.3 198.4,278.4 	"/>
	<polygon fill="#E9AE78" points="85.1,4.9 198.4,4.9 141.7,141.7 	"/>
	<polygon fill="#E9AE78" points="278.6,85 278.6,198.3 141.7,141.6 	"/>
	<polygon fill="#E9AE78" points="198.4,278.5 85.1,278.5 141.7,141.6 	"/>
	<polygon fill="#E9AE78" points="5,198.3 5,85 141.8,141.6 	"/>
</g>
<g id="rotateItems">
	<rect id="ph" fill="none" width="283.5" height="283.5"/>
	<g id="bar">
		<path fill="#F4BE20" stroke="#B1911B" stroke-width="3" stroke-miterlimit="10" d="M141.9,29.3c7.2,0,9.7,5,9.7,21.6
			c0,19.3-9.7,45,5.3,77.6c9.6,20.7,0,31.8-15.1,31.8c-15.4,0-25.1-11.2-15.4-31.8c15.4-32.6,6.2-60.1,6.2-77.6
			C132.8,34.4,134.7,29.3,141.9,29.3z"/>
	</g>
	<g id="center">
		<circle fill="#B3751E" cx="141.7" cy="141.6" r="11"/>
	</g>
	<g id="slotHandler">
		<circle fill="#C14235" stroke="#DA4C3C" stroke-width="5" stroke-miterlimit="10" cx="141.7" cy="37.6" r="13.4"/>
	</g>
</g>
</svg>
